%
M48
M72
T01C0.01378
T02C0.03937
%
T01
X16300Y47560
X25300Y71300
X22300Y78689
X26300Y83689
X16300Y75040
X11300Y93300
X17300Y97300
X61300Y61300
X61300Y56300
X61300Y51300
X61300Y46300
X61300Y41300
X66300Y41300
X66300Y46300
X66300Y51300
X66300Y56300
X66300Y61300
X71300Y61300
X71300Y56300
X76300Y56300
X76300Y51300
X76300Y46300
X76300Y41300
X71300Y41300
X71300Y46300
X81300Y46300
X81300Y41300
X81300Y51300
X81300Y56300
X81300Y61300
X76300Y61300
T02
X76300Y136300
X66300Y136300
X51300Y136300
X41300Y136300
X31300Y136300
X91300Y136300
X101300Y136300
X111300Y136300
M30
