G75*
%MOIN*%
%OFA0B0*%
%FSLAX25Y25*%
%IPPOS*%
%LPD*%
%AMOC8*
5,1,8,0,0,1.08239X$1,22.5*
%
%ADD10C,0.06737*%
%ADD11C,0.03778*%
D10*
X0031300Y0133331D02*
X0031300Y0139269D01*
X0041300Y0139269D02*
X0041300Y0133331D01*
X0051300Y0133331D02*
X0051300Y0139269D01*
X0066300Y0139269D02*
X0066300Y0133331D01*
X0076300Y0133331D02*
X0076300Y0139269D01*
X0091300Y0139269D02*
X0091300Y0133331D01*
X0101300Y0133331D02*
X0101300Y0139269D01*
X0111300Y0139269D02*
X0111300Y0133331D01*
D11*
X0016300Y0047560D03*
X0025300Y0071300D03*
X0022300Y0078689D03*
X0026300Y0083689D03*
X0016300Y0075040D03*
X0011300Y0093300D03*
X0017300Y0097300D03*
X0061300Y0061300D03*
X0061300Y0056300D03*
X0061300Y0051300D03*
X0061300Y0046300D03*
X0061300Y0041300D03*
X0066300Y0041300D03*
X0066300Y0046300D03*
X0066300Y0051300D03*
X0066300Y0056300D03*
X0066300Y0061300D03*
X0071300Y0061300D03*
X0071300Y0056300D03*
X0076300Y0056300D03*
X0076300Y0051300D03*
X0076300Y0046300D03*
X0076300Y0041300D03*
X0071300Y0041300D03*
X0071300Y0046300D03*
X0081300Y0046300D03*
X0081300Y0041300D03*
X0081300Y0051300D03*
X0081300Y0056300D03*
X0081300Y0061300D03*
X0076300Y0061300D03*
M02*
