G75*
%MOIN*%
%OFA0B0*%
%FSLAX25Y25*%
%IPPOS*%
%LPD*%
%AMOC8*
5,1,8,0,0,1.08239X$1,22.5*
%
%ADD10C,0.00000*%
%ADD11C,0.05937*%
%ADD12R,0.03937X0.01969*%
%ADD13R,0.05906X0.03543*%
%ADD14R,0.03543X0.05906*%
%ADD15R,0.23622X0.23622*%
%ADD16R,0.05906X0.05118*%
%ADD17R,0.03543X0.02756*%
%ADD18C,0.02978*%
%ADD19C,0.00600*%
D10*
X0001300Y0001300D02*
X0001300Y0155001D01*
X0121221Y0155001D01*
X0121221Y0001300D01*
X0001300Y0001300D01*
D11*
X0031300Y0133331D02*
X0031300Y0139269D01*
X0041300Y0139269D02*
X0041300Y0133331D01*
X0051300Y0133331D02*
X0051300Y0139269D01*
X0066300Y0139269D02*
X0066300Y0133331D01*
X0076300Y0133331D02*
X0076300Y0139269D01*
X0091300Y0139269D02*
X0091300Y0133331D01*
X0101300Y0133331D02*
X0101300Y0139269D01*
X0111300Y0139269D02*
X0111300Y0133331D01*
D12*
X0021221Y0086300D03*
X0011379Y0082560D03*
X0011379Y0090040D03*
D13*
X0035867Y0081615D03*
X0035867Y0076615D03*
X0035867Y0071615D03*
X0035867Y0066615D03*
X0035867Y0061615D03*
X0035867Y0056615D03*
X0035867Y0051615D03*
X0035867Y0046615D03*
X0035867Y0041615D03*
X0035867Y0036615D03*
X0035867Y0031615D03*
X0035867Y0026615D03*
X0035867Y0021615D03*
X0035867Y0016615D03*
X0106733Y0016615D03*
X0106733Y0021615D03*
X0106733Y0026615D03*
X0106733Y0031615D03*
X0106733Y0036615D03*
X0106733Y0041615D03*
X0106733Y0046615D03*
X0106733Y0051615D03*
X0106733Y0056615D03*
X0106733Y0061615D03*
X0106733Y0066615D03*
X0106733Y0071615D03*
X0106733Y0076615D03*
X0106733Y0081615D03*
D14*
X0093800Y0010749D03*
X0088800Y0010749D03*
X0083800Y0010749D03*
X0078800Y0010749D03*
X0073800Y0010749D03*
X0068800Y0010749D03*
X0063800Y0010749D03*
X0058800Y0010749D03*
X0053800Y0010749D03*
X0048800Y0010749D03*
D15*
X0071300Y0051300D03*
D16*
X0016300Y0047560D03*
X0016300Y0055040D03*
X0016300Y0067560D03*
X0016300Y0075040D03*
D17*
X0029300Y0075859D03*
X0029300Y0070741D03*
D18*
X0025300Y0071300D03*
X0022300Y0078689D03*
X0026300Y0083689D03*
X0016300Y0075040D03*
X0011300Y0093300D03*
X0017300Y0097300D03*
X0016300Y0047560D03*
X0061300Y0046300D03*
X0061300Y0041300D03*
X0066300Y0041300D03*
X0066300Y0046300D03*
X0066300Y0051300D03*
X0066300Y0056300D03*
X0066300Y0061300D03*
X0061300Y0061300D03*
X0061300Y0056300D03*
X0061300Y0051300D03*
X0071300Y0046300D03*
X0071300Y0041300D03*
X0076300Y0041300D03*
X0076300Y0046300D03*
X0076300Y0051300D03*
X0076300Y0056300D03*
X0076300Y0061300D03*
X0071300Y0061300D03*
X0071300Y0056300D03*
X0081300Y0056300D03*
X0081300Y0051300D03*
X0081300Y0046300D03*
X0081300Y0041300D03*
X0081300Y0061300D03*
D19*
X0084011Y0061426D02*
X0102880Y0061426D01*
X0102880Y0060828D02*
X0084011Y0060828D01*
X0084011Y0060229D02*
X0102880Y0060229D01*
X0102880Y0059631D02*
X0084011Y0059631D01*
X0084011Y0059032D02*
X0103153Y0059032D01*
X0103236Y0059115D02*
X0102880Y0058759D01*
X0102880Y0054471D01*
X0103236Y0054115D01*
X0102880Y0053759D01*
X0102880Y0049471D01*
X0103236Y0049115D01*
X0102880Y0048759D01*
X0102880Y0044471D01*
X0103236Y0044115D01*
X0102880Y0043759D01*
X0102880Y0039471D01*
X0103236Y0039115D01*
X0102880Y0038759D01*
X0102880Y0034471D01*
X0103236Y0034115D01*
X0102880Y0033759D01*
X0102880Y0029471D01*
X0103236Y0029115D01*
X0102880Y0028759D01*
X0102880Y0024471D01*
X0103236Y0024115D01*
X0102880Y0023759D01*
X0102880Y0019471D01*
X0103236Y0019115D01*
X0102880Y0018759D01*
X0102880Y0014471D01*
X0103408Y0013943D01*
X0110059Y0013943D01*
X0110586Y0014471D01*
X0110586Y0018759D01*
X0110230Y0019115D01*
X0110586Y0019471D01*
X0110586Y0023759D01*
X0110230Y0024115D01*
X0110586Y0024471D01*
X0110586Y0028759D01*
X0110230Y0029115D01*
X0110586Y0029471D01*
X0110586Y0033759D01*
X0110230Y0034115D01*
X0110586Y0034471D01*
X0110586Y0038759D01*
X0110230Y0039115D01*
X0110586Y0039471D01*
X0110586Y0043759D01*
X0110230Y0044115D01*
X0110586Y0044471D01*
X0110586Y0048759D01*
X0110230Y0049115D01*
X0110586Y0049471D01*
X0110586Y0053759D01*
X0110230Y0054115D01*
X0110586Y0054471D01*
X0110586Y0058759D01*
X0110230Y0059115D01*
X0110586Y0059471D01*
X0110586Y0063759D01*
X0110230Y0064115D01*
X0110586Y0064471D01*
X0110586Y0068759D01*
X0110230Y0069115D01*
X0110586Y0069471D01*
X0110586Y0073759D01*
X0110230Y0074115D01*
X0110586Y0074471D01*
X0110586Y0078759D01*
X0110230Y0079115D01*
X0110586Y0079471D01*
X0110586Y0083759D01*
X0110059Y0084287D01*
X0103408Y0084287D01*
X0102880Y0083759D01*
X0102880Y0079471D01*
X0103236Y0079115D01*
X0102880Y0078759D01*
X0102880Y0074471D01*
X0103236Y0074115D01*
X0102880Y0073759D01*
X0102880Y0069471D01*
X0103236Y0069115D01*
X0102880Y0068759D01*
X0102880Y0064471D01*
X0103236Y0064115D01*
X0102880Y0063759D01*
X0102880Y0059471D01*
X0103236Y0059115D01*
X0102880Y0058434D02*
X0084011Y0058434D01*
X0084011Y0057835D02*
X0102880Y0057835D01*
X0102880Y0057237D02*
X0084011Y0057237D01*
X0084011Y0056638D02*
X0102880Y0056638D01*
X0102880Y0056039D02*
X0084011Y0056039D01*
X0084011Y0055441D02*
X0102880Y0055441D01*
X0102880Y0054842D02*
X0084011Y0054842D01*
X0084011Y0054244D02*
X0103107Y0054244D01*
X0102880Y0053645D02*
X0084011Y0053645D01*
X0084011Y0053047D02*
X0102880Y0053047D01*
X0102880Y0052448D02*
X0084011Y0052448D01*
X0084011Y0051850D02*
X0102880Y0051850D01*
X0102880Y0051251D02*
X0084011Y0051251D01*
X0084011Y0050653D02*
X0102880Y0050653D01*
X0102880Y0050054D02*
X0084011Y0050054D01*
X0084011Y0049456D02*
X0102895Y0049456D01*
X0102978Y0048857D02*
X0084011Y0048857D01*
X0084011Y0048259D02*
X0102880Y0048259D01*
X0102880Y0047660D02*
X0084011Y0047660D01*
X0084011Y0047062D02*
X0102880Y0047062D01*
X0102880Y0046463D02*
X0084011Y0046463D01*
X0084011Y0045865D02*
X0102880Y0045865D01*
X0102880Y0045266D02*
X0084011Y0045266D01*
X0084011Y0044668D02*
X0102880Y0044668D01*
X0103190Y0044069D02*
X0084011Y0044069D01*
X0084011Y0043471D02*
X0102880Y0043471D01*
X0102880Y0042872D02*
X0084011Y0042872D01*
X0084011Y0042274D02*
X0102880Y0042274D01*
X0102880Y0041675D02*
X0084011Y0041675D01*
X0084011Y0041077D02*
X0102880Y0041077D01*
X0102880Y0040478D02*
X0084011Y0040478D01*
X0084011Y0039880D02*
X0102880Y0039880D01*
X0103070Y0039281D02*
X0084011Y0039281D01*
X0084011Y0039116D02*
X0084011Y0063484D01*
X0083484Y0064011D01*
X0059116Y0064011D01*
X0058589Y0063484D01*
X0058589Y0039116D01*
X0059116Y0038589D01*
X0083484Y0038589D01*
X0084011Y0039116D01*
X0083577Y0038683D02*
X0102880Y0038683D01*
X0102880Y0038084D02*
X0039720Y0038084D01*
X0039720Y0037486D02*
X0102880Y0037486D01*
X0102880Y0036887D02*
X0039720Y0036887D01*
X0039720Y0036289D02*
X0102880Y0036289D01*
X0102880Y0035690D02*
X0039720Y0035690D01*
X0039720Y0035092D02*
X0102880Y0035092D01*
X0102880Y0034493D02*
X0039720Y0034493D01*
X0039720Y0034471D02*
X0039720Y0038759D01*
X0039364Y0039115D01*
X0039720Y0039471D01*
X0039720Y0043759D01*
X0039364Y0044115D01*
X0039720Y0044471D01*
X0039720Y0048759D01*
X0039364Y0049115D01*
X0039720Y0049471D01*
X0039720Y0050100D01*
X0046797Y0050100D01*
X0047500Y0050803D01*
X0052500Y0055803D01*
X0052500Y0060803D01*
X0066797Y0075100D01*
X0091797Y0075100D01*
X0092500Y0075803D01*
X0101247Y0084550D01*
X0116921Y0084550D01*
X0116921Y0005600D01*
X0005600Y0005600D01*
X0005600Y0150701D01*
X0116921Y0150701D01*
X0116921Y0123154D01*
X0112500Y0127575D01*
X0112500Y0129641D01*
X0113491Y0130052D01*
X0114580Y0131140D01*
X0115168Y0132562D01*
X0115168Y0140038D01*
X0114580Y0141460D01*
X0113491Y0142548D01*
X0112069Y0143137D01*
X0110530Y0143137D01*
X0109109Y0142548D01*
X0108020Y0141460D01*
X0107431Y0140038D01*
X0107431Y0132562D01*
X0108020Y0131140D01*
X0109109Y0130052D01*
X0110100Y0129641D01*
X0110100Y0126581D01*
X0114831Y0121850D01*
X0033547Y0121850D01*
X0036797Y0125100D01*
X0071797Y0125100D01*
X0072500Y0125803D01*
X0076160Y0129463D01*
X0077069Y0129463D01*
X0078491Y0130052D01*
X0079580Y0131140D01*
X0080168Y0132562D01*
X0080168Y0140038D01*
X0079580Y0141460D01*
X0078491Y0142548D01*
X0077069Y0143137D01*
X0075530Y0143137D01*
X0074109Y0142548D01*
X0073020Y0141460D01*
X0072431Y0140038D01*
X0072431Y0132562D01*
X0073020Y0131140D01*
X0073732Y0130429D01*
X0070803Y0127500D01*
X0047197Y0127500D01*
X0049561Y0129864D01*
X0050530Y0129463D01*
X0052069Y0129463D01*
X0053491Y0130052D01*
X0054580Y0131140D01*
X0055168Y0132562D01*
X0055168Y0140038D01*
X0054580Y0141460D01*
X0053491Y0142548D01*
X0052069Y0143137D01*
X0050530Y0143137D01*
X0049109Y0142548D01*
X0048020Y0141460D01*
X0047431Y0140038D01*
X0047431Y0132562D01*
X0047851Y0131548D01*
X0045803Y0129500D01*
X0043182Y0129500D01*
X0043537Y0129681D01*
X0044081Y0130076D01*
X0044556Y0130551D01*
X0044951Y0131094D01*
X0045256Y0131693D01*
X0045463Y0132332D01*
X0045568Y0132996D01*
X0045568Y0136000D01*
X0041600Y0136000D01*
X0041600Y0136600D01*
X0041000Y0136600D01*
X0041000Y0143537D01*
X0040964Y0143537D01*
X0040300Y0143432D01*
X0039661Y0143224D01*
X0039063Y0142919D01*
X0038519Y0142524D01*
X0038044Y0142049D01*
X0037649Y0141506D01*
X0037344Y0140907D01*
X0037137Y0140268D01*
X0037031Y0139604D01*
X0037031Y0136600D01*
X0041000Y0136600D01*
X0041000Y0136000D01*
X0037031Y0136000D01*
X0037031Y0132996D01*
X0037137Y0132332D01*
X0037344Y0131693D01*
X0037649Y0131094D01*
X0038044Y0130551D01*
X0038519Y0130076D01*
X0039063Y0129681D01*
X0039418Y0129500D01*
X0034803Y0129500D01*
X0034100Y0128797D01*
X0029553Y0124250D01*
X0025078Y0124250D01*
X0016100Y0115272D01*
X0016100Y0099479D01*
X0014911Y0098290D01*
X0014911Y0096310D01*
X0016310Y0094911D01*
X0018290Y0094911D01*
X0019689Y0096310D01*
X0019689Y0098290D01*
X0018500Y0099479D01*
X0018500Y0114278D01*
X0020021Y0115799D01*
X0020021Y0088184D01*
X0018880Y0088184D01*
X0018353Y0087657D01*
X0018353Y0084943D01*
X0018880Y0084416D01*
X0021425Y0084416D01*
X0024231Y0081653D01*
X0024569Y0081306D01*
X0024583Y0081306D01*
X0024593Y0081296D01*
X0025079Y0081300D01*
X0025563Y0081294D01*
X0025569Y0081300D01*
X0027290Y0081300D01*
X0028689Y0082699D01*
X0028689Y0084679D01*
X0027617Y0085750D01*
X0099053Y0085750D01*
X0090803Y0077500D01*
X0065803Y0077500D01*
X0050803Y0062500D01*
X0050100Y0061797D01*
X0050100Y0056797D01*
X0045803Y0052500D01*
X0039720Y0052500D01*
X0039720Y0053759D01*
X0039364Y0054115D01*
X0039720Y0054471D01*
X0039720Y0058759D01*
X0039364Y0059115D01*
X0039720Y0059471D01*
X0039720Y0063759D01*
X0039364Y0064115D01*
X0039720Y0064471D01*
X0039720Y0068759D01*
X0039647Y0068832D01*
X0039860Y0069045D01*
X0040031Y0069342D01*
X0040120Y0069672D01*
X0040120Y0071315D01*
X0036167Y0071315D01*
X0036167Y0071915D01*
X0040120Y0071915D01*
X0040120Y0073558D01*
X0040031Y0073888D01*
X0039900Y0074115D01*
X0040031Y0074342D01*
X0040120Y0074672D01*
X0040120Y0076315D01*
X0036167Y0076315D01*
X0036167Y0076915D01*
X0040120Y0076915D01*
X0040120Y0078558D01*
X0040031Y0078888D01*
X0039860Y0079185D01*
X0039647Y0079398D01*
X0039720Y0079471D01*
X0039720Y0083759D01*
X0039192Y0084287D01*
X0032541Y0084287D01*
X0032014Y0083759D01*
X0032014Y0079471D01*
X0032087Y0079398D01*
X0031874Y0079185D01*
X0031703Y0078888D01*
X0031614Y0078558D01*
X0031614Y0078425D01*
X0031573Y0078448D01*
X0031243Y0078537D01*
X0029600Y0078537D01*
X0029600Y0076159D01*
X0029000Y0076159D01*
X0029000Y0075559D01*
X0029600Y0075559D01*
X0029600Y0073181D01*
X0031243Y0073181D01*
X0031573Y0073270D01*
X0031614Y0073293D01*
X0031614Y0072849D01*
X0031444Y0073019D01*
X0027156Y0073019D01*
X0027058Y0072921D01*
X0026290Y0073689D01*
X0024310Y0073689D01*
X0023500Y0072878D01*
X0023500Y0076510D01*
X0024689Y0077699D01*
X0024689Y0079679D01*
X0023290Y0081078D01*
X0021310Y0081078D01*
X0019911Y0079679D01*
X0019911Y0078214D01*
X0019626Y0078499D01*
X0012974Y0078499D01*
X0012447Y0077972D01*
X0012447Y0072108D01*
X0012974Y0071581D01*
X0019626Y0071581D01*
X0020153Y0072108D01*
X0020153Y0077458D01*
X0021100Y0076510D01*
X0021100Y0068803D01*
X0021803Y0068100D01*
X0024488Y0065415D01*
X0032014Y0065415D01*
X0032014Y0064471D01*
X0032370Y0064115D01*
X0032014Y0063759D01*
X0032014Y0062815D01*
X0017500Y0062815D01*
X0017500Y0064101D01*
X0019626Y0064101D01*
X0020153Y0064628D01*
X0020153Y0070492D01*
X0019626Y0071019D01*
X0012974Y0071019D01*
X0012447Y0070492D01*
X0012447Y0064628D01*
X0012974Y0064101D01*
X0015100Y0064101D01*
X0015100Y0058499D01*
X0012974Y0058499D01*
X0012447Y0057972D01*
X0012447Y0052108D01*
X0012974Y0051581D01*
X0019626Y0051581D01*
X0020153Y0052108D01*
X0020153Y0057972D01*
X0019626Y0058499D01*
X0017500Y0058499D01*
X0017500Y0060415D01*
X0032014Y0060415D01*
X0032014Y0059471D01*
X0032370Y0059115D01*
X0032014Y0058759D01*
X0032014Y0054471D01*
X0032370Y0054115D01*
X0032014Y0053759D01*
X0032014Y0049471D01*
X0032370Y0049115D01*
X0032014Y0048759D01*
X0032014Y0044471D01*
X0032370Y0044115D01*
X0032014Y0043759D01*
X0032014Y0039471D01*
X0032370Y0039115D01*
X0032014Y0038759D01*
X0032014Y0034471D01*
X0032370Y0034115D01*
X0032014Y0033759D01*
X0032014Y0029471D01*
X0032370Y0029115D01*
X0032014Y0028759D01*
X0032014Y0024471D01*
X0032370Y0024115D01*
X0032014Y0023759D01*
X0032014Y0019471D01*
X0032370Y0019115D01*
X0032014Y0018759D01*
X0032014Y0014471D01*
X0032541Y0013943D01*
X0039192Y0013943D01*
X0039720Y0014471D01*
X0039720Y0018759D01*
X0039364Y0019115D01*
X0039720Y0019471D01*
X0039720Y0023759D01*
X0039364Y0024115D01*
X0039720Y0024471D01*
X0039720Y0028759D01*
X0039364Y0029115D01*
X0039720Y0029471D01*
X0039720Y0033759D01*
X0039364Y0034115D01*
X0039720Y0034471D01*
X0039585Y0033895D02*
X0103015Y0033895D01*
X0102880Y0033296D02*
X0039720Y0033296D01*
X0039720Y0032698D02*
X0102880Y0032698D01*
X0102880Y0032099D02*
X0039720Y0032099D01*
X0039720Y0031501D02*
X0102880Y0031501D01*
X0102880Y0030902D02*
X0039720Y0030902D01*
X0039720Y0030303D02*
X0102880Y0030303D01*
X0102880Y0029705D02*
X0039720Y0029705D01*
X0039373Y0029106D02*
X0103227Y0029106D01*
X0102880Y0028508D02*
X0039720Y0028508D01*
X0039720Y0027909D02*
X0102880Y0027909D01*
X0102880Y0027311D02*
X0039720Y0027311D01*
X0039720Y0026712D02*
X0102880Y0026712D01*
X0102880Y0026114D02*
X0039720Y0026114D01*
X0039720Y0025515D02*
X0102880Y0025515D01*
X0102880Y0024917D02*
X0039720Y0024917D01*
X0039568Y0024318D02*
X0103032Y0024318D01*
X0102880Y0023720D02*
X0039720Y0023720D01*
X0039720Y0023121D02*
X0102880Y0023121D01*
X0102880Y0022523D02*
X0039720Y0022523D01*
X0039720Y0021924D02*
X0102880Y0021924D01*
X0102880Y0021326D02*
X0039720Y0021326D01*
X0039720Y0020727D02*
X0102880Y0020727D01*
X0102880Y0020129D02*
X0039720Y0020129D01*
X0039720Y0019530D02*
X0102880Y0019530D01*
X0103053Y0018932D02*
X0039547Y0018932D01*
X0039720Y0018333D02*
X0102880Y0018333D01*
X0102880Y0017735D02*
X0039720Y0017735D01*
X0039720Y0017136D02*
X0102880Y0017136D01*
X0102880Y0016538D02*
X0039720Y0016538D01*
X0039720Y0015939D02*
X0102880Y0015939D01*
X0102880Y0015341D02*
X0039720Y0015341D01*
X0039720Y0014742D02*
X0102880Y0014742D01*
X0103207Y0014144D02*
X0096402Y0014144D01*
X0096472Y0014074D02*
X0095944Y0014602D01*
X0091656Y0014602D01*
X0091300Y0014246D01*
X0090944Y0014602D01*
X0086656Y0014602D01*
X0086300Y0014246D01*
X0085944Y0014602D01*
X0081656Y0014602D01*
X0081300Y0014246D01*
X0080944Y0014602D01*
X0076656Y0014602D01*
X0076300Y0014246D01*
X0075944Y0014602D01*
X0071656Y0014602D01*
X0071300Y0014246D01*
X0070944Y0014602D01*
X0066656Y0014602D01*
X0066300Y0014246D01*
X0065944Y0014602D01*
X0061656Y0014602D01*
X0061300Y0014246D01*
X0060944Y0014602D01*
X0056656Y0014602D01*
X0056300Y0014246D01*
X0055944Y0014602D01*
X0051656Y0014602D01*
X0051300Y0014246D01*
X0050944Y0014602D01*
X0046656Y0014602D01*
X0046128Y0014074D01*
X0046128Y0007423D01*
X0046656Y0006896D01*
X0050944Y0006896D01*
X0051300Y0007252D01*
X0051656Y0006896D01*
X0055944Y0006896D01*
X0056300Y0007252D01*
X0056656Y0006896D01*
X0060944Y0006896D01*
X0061300Y0007252D01*
X0061656Y0006896D01*
X0065944Y0006896D01*
X0066300Y0007252D01*
X0066656Y0006896D01*
X0070944Y0006896D01*
X0071300Y0007252D01*
X0071656Y0006896D01*
X0075944Y0006896D01*
X0076300Y0007252D01*
X0076656Y0006896D01*
X0080944Y0006896D01*
X0081300Y0007252D01*
X0081656Y0006896D01*
X0085944Y0006896D01*
X0086300Y0007252D01*
X0086656Y0006896D01*
X0090944Y0006896D01*
X0091300Y0007252D01*
X0091656Y0006896D01*
X0095944Y0006896D01*
X0096472Y0007423D01*
X0096472Y0014074D01*
X0096472Y0013545D02*
X0116921Y0013545D01*
X0116921Y0012947D02*
X0096472Y0012947D01*
X0096472Y0012348D02*
X0116921Y0012348D01*
X0116921Y0011750D02*
X0096472Y0011750D01*
X0096472Y0011151D02*
X0116921Y0011151D01*
X0116921Y0010553D02*
X0096472Y0010553D01*
X0096472Y0009954D02*
X0116921Y0009954D01*
X0116921Y0009356D02*
X0096472Y0009356D01*
X0096472Y0008757D02*
X0116921Y0008757D01*
X0116921Y0008159D02*
X0096472Y0008159D01*
X0096472Y0007560D02*
X0116921Y0007560D01*
X0116921Y0006962D02*
X0096010Y0006962D01*
X0091590Y0006962D02*
X0091010Y0006962D01*
X0086590Y0006962D02*
X0086010Y0006962D01*
X0081590Y0006962D02*
X0081010Y0006962D01*
X0076590Y0006962D02*
X0076010Y0006962D01*
X0071590Y0006962D02*
X0071010Y0006962D01*
X0066590Y0006962D02*
X0066010Y0006962D01*
X0061590Y0006962D02*
X0061010Y0006962D01*
X0056590Y0006962D02*
X0056010Y0006962D01*
X0051590Y0006962D02*
X0051010Y0006962D01*
X0046590Y0006962D02*
X0005600Y0006962D01*
X0005600Y0007560D02*
X0046128Y0007560D01*
X0046128Y0008159D02*
X0005600Y0008159D01*
X0005600Y0008757D02*
X0046128Y0008757D01*
X0046128Y0009356D02*
X0005600Y0009356D01*
X0005600Y0009954D02*
X0046128Y0009954D01*
X0046128Y0010553D02*
X0005600Y0010553D01*
X0005600Y0011151D02*
X0046128Y0011151D01*
X0046128Y0011750D02*
X0005600Y0011750D01*
X0005600Y0012348D02*
X0046128Y0012348D01*
X0046128Y0012947D02*
X0005600Y0012947D01*
X0005600Y0013545D02*
X0046128Y0013545D01*
X0046198Y0014144D02*
X0039393Y0014144D01*
X0032341Y0014144D02*
X0005600Y0014144D01*
X0005600Y0014742D02*
X0032014Y0014742D01*
X0032014Y0015341D02*
X0005600Y0015341D01*
X0005600Y0015939D02*
X0032014Y0015939D01*
X0032014Y0016538D02*
X0005600Y0016538D01*
X0005600Y0017136D02*
X0032014Y0017136D01*
X0032014Y0017735D02*
X0005600Y0017735D01*
X0005600Y0018333D02*
X0032014Y0018333D01*
X0032187Y0018932D02*
X0005600Y0018932D01*
X0005600Y0019530D02*
X0032014Y0019530D01*
X0032014Y0020129D02*
X0005600Y0020129D01*
X0005600Y0020727D02*
X0032014Y0020727D01*
X0032014Y0021326D02*
X0005600Y0021326D01*
X0005600Y0021924D02*
X0032014Y0021924D01*
X0032014Y0022523D02*
X0005600Y0022523D01*
X0005600Y0023121D02*
X0032014Y0023121D01*
X0032014Y0023720D02*
X0005600Y0023720D01*
X0005600Y0024318D02*
X0032166Y0024318D01*
X0032014Y0024917D02*
X0005600Y0024917D01*
X0005600Y0025515D02*
X0032014Y0025515D01*
X0032014Y0026114D02*
X0005600Y0026114D01*
X0005600Y0026712D02*
X0032014Y0026712D01*
X0032014Y0027311D02*
X0005600Y0027311D01*
X0005600Y0027909D02*
X0032014Y0027909D01*
X0032014Y0028508D02*
X0005600Y0028508D01*
X0005600Y0029106D02*
X0032361Y0029106D01*
X0032014Y0029705D02*
X0005600Y0029705D01*
X0005600Y0030303D02*
X0032014Y0030303D01*
X0032014Y0030902D02*
X0005600Y0030902D01*
X0005600Y0031501D02*
X0032014Y0031501D01*
X0032014Y0032099D02*
X0005600Y0032099D01*
X0005600Y0032698D02*
X0032014Y0032698D01*
X0032014Y0033296D02*
X0005600Y0033296D01*
X0005600Y0033895D02*
X0032149Y0033895D01*
X0032014Y0034493D02*
X0005600Y0034493D01*
X0005600Y0035092D02*
X0032014Y0035092D01*
X0032014Y0035690D02*
X0005600Y0035690D01*
X0005600Y0036289D02*
X0032014Y0036289D01*
X0032014Y0036887D02*
X0005600Y0036887D01*
X0005600Y0037486D02*
X0032014Y0037486D01*
X0032014Y0038084D02*
X0005600Y0038084D01*
X0005600Y0038683D02*
X0032014Y0038683D01*
X0032204Y0039281D02*
X0005600Y0039281D01*
X0005600Y0039880D02*
X0032014Y0039880D01*
X0032014Y0040478D02*
X0005600Y0040478D01*
X0005600Y0041077D02*
X0032014Y0041077D01*
X0032014Y0041675D02*
X0005600Y0041675D01*
X0005600Y0042274D02*
X0032014Y0042274D01*
X0032014Y0042872D02*
X0005600Y0042872D01*
X0005600Y0043471D02*
X0032014Y0043471D01*
X0032324Y0044069D02*
X0005600Y0044069D01*
X0005600Y0044668D02*
X0012447Y0044668D01*
X0012447Y0044628D02*
X0012974Y0044101D01*
X0019626Y0044101D01*
X0020153Y0044628D01*
X0020153Y0050492D01*
X0019626Y0051019D01*
X0012974Y0051019D01*
X0012447Y0050492D01*
X0012447Y0044628D01*
X0012447Y0045266D02*
X0005600Y0045266D01*
X0005600Y0045865D02*
X0012447Y0045865D01*
X0012447Y0046463D02*
X0005600Y0046463D01*
X0005600Y0047062D02*
X0012447Y0047062D01*
X0012447Y0047660D02*
X0005600Y0047660D01*
X0005600Y0048259D02*
X0012447Y0048259D01*
X0012447Y0048857D02*
X0005600Y0048857D01*
X0005600Y0049456D02*
X0012447Y0049456D01*
X0012447Y0050054D02*
X0005600Y0050054D01*
X0005600Y0050653D02*
X0012608Y0050653D01*
X0012706Y0051850D02*
X0005600Y0051850D01*
X0005600Y0052448D02*
X0012447Y0052448D01*
X0012447Y0053047D02*
X0005600Y0053047D01*
X0005600Y0053645D02*
X0012447Y0053645D01*
X0012447Y0054244D02*
X0005600Y0054244D01*
X0005600Y0054842D02*
X0012447Y0054842D01*
X0012447Y0055441D02*
X0005600Y0055441D01*
X0005600Y0056039D02*
X0012447Y0056039D01*
X0012447Y0056638D02*
X0005600Y0056638D01*
X0005600Y0057237D02*
X0012447Y0057237D01*
X0012447Y0057835D02*
X0005600Y0057835D01*
X0005600Y0058434D02*
X0012909Y0058434D01*
X0015100Y0059032D02*
X0005600Y0059032D01*
X0005600Y0059631D02*
X0015100Y0059631D01*
X0015100Y0060229D02*
X0005600Y0060229D01*
X0005600Y0060828D02*
X0015100Y0060828D01*
X0015100Y0061426D02*
X0005600Y0061426D01*
X0005600Y0062025D02*
X0015100Y0062025D01*
X0015100Y0062623D02*
X0005600Y0062623D01*
X0005600Y0063222D02*
X0015100Y0063222D01*
X0015100Y0063820D02*
X0005600Y0063820D01*
X0005600Y0064419D02*
X0012657Y0064419D01*
X0012447Y0065017D02*
X0005600Y0065017D01*
X0005600Y0065616D02*
X0012447Y0065616D01*
X0012447Y0066214D02*
X0005600Y0066214D01*
X0005600Y0066813D02*
X0012447Y0066813D01*
X0012447Y0067411D02*
X0005600Y0067411D01*
X0005600Y0068010D02*
X0012447Y0068010D01*
X0012447Y0068608D02*
X0005600Y0068608D01*
X0005600Y0069207D02*
X0012447Y0069207D01*
X0012447Y0069805D02*
X0005600Y0069805D01*
X0005600Y0070404D02*
X0012447Y0070404D01*
X0012958Y0071002D02*
X0005600Y0071002D01*
X0005600Y0071601D02*
X0012955Y0071601D01*
X0012447Y0072199D02*
X0005600Y0072199D01*
X0005600Y0072798D02*
X0012447Y0072798D01*
X0012447Y0073396D02*
X0005600Y0073396D01*
X0005600Y0073995D02*
X0012447Y0073995D01*
X0012447Y0074593D02*
X0005600Y0074593D01*
X0005600Y0075192D02*
X0012447Y0075192D01*
X0012447Y0075790D02*
X0005600Y0075790D01*
X0005600Y0076389D02*
X0012447Y0076389D01*
X0012447Y0076987D02*
X0005600Y0076987D01*
X0005600Y0077586D02*
X0012447Y0077586D01*
X0012660Y0078184D02*
X0005600Y0078184D01*
X0005600Y0078783D02*
X0019911Y0078783D01*
X0019911Y0079381D02*
X0005600Y0079381D01*
X0005600Y0079980D02*
X0020212Y0079980D01*
X0020811Y0080578D02*
X0014189Y0080578D01*
X0014145Y0080535D02*
X0014387Y0080777D01*
X0014559Y0081074D01*
X0014647Y0081404D01*
X0014647Y0082368D01*
X0011571Y0082368D01*
X0011571Y0082752D01*
X0014647Y0082752D01*
X0014647Y0083715D01*
X0014559Y0084046D01*
X0014387Y0084342D01*
X0014145Y0084584D01*
X0013849Y0084755D01*
X0013518Y0084844D01*
X0011571Y0084844D01*
X0011571Y0082752D01*
X0011187Y0082752D01*
X0011187Y0084844D01*
X0009239Y0084844D01*
X0008908Y0084755D01*
X0008612Y0084584D01*
X0008370Y0084342D01*
X0008199Y0084046D01*
X0008110Y0083715D01*
X0008110Y0082752D01*
X0011187Y0082752D01*
X0011187Y0082368D01*
X0011571Y0082368D01*
X0011571Y0080276D01*
X0013518Y0080276D01*
X0013849Y0080364D01*
X0014145Y0080535D01*
X0014586Y0081177D02*
X0032014Y0081177D01*
X0032014Y0081775D02*
X0027765Y0081775D01*
X0028364Y0082374D02*
X0032014Y0082374D01*
X0032014Y0082972D02*
X0028689Y0082972D01*
X0028689Y0083571D02*
X0032014Y0083571D01*
X0032424Y0084170D02*
X0028689Y0084170D01*
X0028599Y0084768D02*
X0098071Y0084768D01*
X0097472Y0084170D02*
X0039310Y0084170D01*
X0039720Y0083571D02*
X0096874Y0083571D01*
X0096275Y0082972D02*
X0039720Y0082972D01*
X0039720Y0082374D02*
X0095677Y0082374D01*
X0095078Y0081775D02*
X0039720Y0081775D01*
X0039720Y0081177D02*
X0094480Y0081177D01*
X0093881Y0080578D02*
X0039720Y0080578D01*
X0039720Y0079980D02*
X0093283Y0079980D01*
X0092684Y0079381D02*
X0039663Y0079381D01*
X0040059Y0078783D02*
X0092086Y0078783D01*
X0091487Y0078184D02*
X0040120Y0078184D01*
X0040120Y0077586D02*
X0090889Y0077586D01*
X0091300Y0076300D02*
X0066300Y0076300D01*
X0051300Y0061300D01*
X0051300Y0056300D01*
X0046300Y0051300D01*
X0036182Y0051300D01*
X0035867Y0051615D01*
X0032014Y0051850D02*
X0019894Y0051850D01*
X0020153Y0052448D02*
X0032014Y0052448D01*
X0032014Y0053047D02*
X0020153Y0053047D01*
X0020153Y0053645D02*
X0032014Y0053645D01*
X0032241Y0054244D02*
X0020153Y0054244D01*
X0020153Y0054842D02*
X0032014Y0054842D01*
X0032014Y0055441D02*
X0020153Y0055441D01*
X0020153Y0056039D02*
X0032014Y0056039D01*
X0032014Y0056638D02*
X0020153Y0056638D01*
X0020153Y0057237D02*
X0032014Y0057237D01*
X0032014Y0057835D02*
X0020153Y0057835D01*
X0019691Y0058434D02*
X0032014Y0058434D01*
X0032287Y0059032D02*
X0017500Y0059032D01*
X0017500Y0059631D02*
X0032014Y0059631D01*
X0032014Y0060229D02*
X0017500Y0060229D01*
X0016300Y0061300D02*
X0016615Y0061615D01*
X0035867Y0061615D01*
X0039720Y0061426D02*
X0050100Y0061426D01*
X0050100Y0060828D02*
X0039720Y0060828D01*
X0039720Y0060229D02*
X0050100Y0060229D01*
X0050100Y0059631D02*
X0039720Y0059631D01*
X0039447Y0059032D02*
X0050100Y0059032D01*
X0050100Y0058434D02*
X0039720Y0058434D01*
X0039720Y0057835D02*
X0050100Y0057835D01*
X0050100Y0057237D02*
X0039720Y0057237D01*
X0039720Y0056638D02*
X0049941Y0056638D01*
X0049342Y0056039D02*
X0039720Y0056039D01*
X0039720Y0055441D02*
X0048744Y0055441D01*
X0048145Y0054842D02*
X0039720Y0054842D01*
X0039493Y0054244D02*
X0047547Y0054244D01*
X0046948Y0053645D02*
X0039720Y0053645D01*
X0039720Y0053047D02*
X0046350Y0053047D01*
X0047948Y0051251D02*
X0058589Y0051251D01*
X0058589Y0050653D02*
X0047350Y0050653D01*
X0048547Y0051850D02*
X0058589Y0051850D01*
X0058589Y0052448D02*
X0049145Y0052448D01*
X0049744Y0053047D02*
X0058589Y0053047D01*
X0058589Y0053645D02*
X0050342Y0053645D01*
X0050941Y0054244D02*
X0058589Y0054244D01*
X0058589Y0054842D02*
X0051540Y0054842D01*
X0052138Y0055441D02*
X0058589Y0055441D01*
X0058589Y0056039D02*
X0052500Y0056039D01*
X0052500Y0056638D02*
X0058589Y0056638D01*
X0058589Y0057237D02*
X0052500Y0057237D01*
X0052500Y0057835D02*
X0058589Y0057835D01*
X0058589Y0058434D02*
X0052500Y0058434D01*
X0052500Y0059032D02*
X0058589Y0059032D01*
X0058589Y0059631D02*
X0052500Y0059631D01*
X0052500Y0060229D02*
X0058589Y0060229D01*
X0058589Y0060828D02*
X0052525Y0060828D01*
X0053123Y0061426D02*
X0058589Y0061426D01*
X0058589Y0062025D02*
X0053722Y0062025D01*
X0054320Y0062623D02*
X0058589Y0062623D01*
X0058589Y0063222D02*
X0054919Y0063222D01*
X0055517Y0063820D02*
X0058925Y0063820D01*
X0057313Y0065616D02*
X0102880Y0065616D01*
X0102880Y0066214D02*
X0057911Y0066214D01*
X0058510Y0066813D02*
X0102880Y0066813D01*
X0102880Y0067411D02*
X0059108Y0067411D01*
X0059707Y0068010D02*
X0102880Y0068010D01*
X0102880Y0068608D02*
X0060305Y0068608D01*
X0060904Y0069207D02*
X0103144Y0069207D01*
X0102880Y0069805D02*
X0061502Y0069805D01*
X0062101Y0070404D02*
X0102880Y0070404D01*
X0102880Y0071002D02*
X0062699Y0071002D01*
X0063298Y0071601D02*
X0102880Y0071601D01*
X0102880Y0072199D02*
X0063896Y0072199D01*
X0064495Y0072798D02*
X0102880Y0072798D01*
X0102880Y0073396D02*
X0065093Y0073396D01*
X0065692Y0073995D02*
X0103116Y0073995D01*
X0102880Y0074593D02*
X0066290Y0074593D01*
X0064692Y0076389D02*
X0036167Y0076389D01*
X0036167Y0076315D02*
X0036167Y0071915D01*
X0035567Y0071915D01*
X0035567Y0074687D01*
X0035567Y0076315D01*
X0036167Y0076315D01*
X0036167Y0075790D02*
X0035567Y0075790D01*
X0035567Y0075192D02*
X0036167Y0075192D01*
X0036167Y0074593D02*
X0035567Y0074593D01*
X0035567Y0073995D02*
X0036167Y0073995D01*
X0036167Y0073396D02*
X0035567Y0073396D01*
X0035567Y0072798D02*
X0036167Y0072798D01*
X0036167Y0072199D02*
X0035567Y0072199D01*
X0035567Y0071915D02*
X0031972Y0071915D01*
X0031972Y0071315D01*
X0035567Y0071315D01*
X0035567Y0071915D01*
X0035567Y0071601D02*
X0031972Y0071601D01*
X0033544Y0071615D02*
X0035867Y0071615D01*
X0036167Y0071601D02*
X0059904Y0071601D01*
X0060502Y0072199D02*
X0040120Y0072199D01*
X0040120Y0072798D02*
X0061101Y0072798D01*
X0061699Y0073396D02*
X0040120Y0073396D01*
X0039970Y0073995D02*
X0062298Y0073995D01*
X0062896Y0074593D02*
X0040099Y0074593D01*
X0040120Y0075192D02*
X0063495Y0075192D01*
X0064093Y0075790D02*
X0040120Y0075790D01*
X0040120Y0076987D02*
X0065290Y0076987D01*
X0059305Y0071002D02*
X0040120Y0071002D01*
X0040120Y0070404D02*
X0058707Y0070404D01*
X0058108Y0069805D02*
X0040120Y0069805D01*
X0039953Y0069207D02*
X0057510Y0069207D01*
X0056911Y0068608D02*
X0039720Y0068608D01*
X0039720Y0068010D02*
X0056313Y0068010D01*
X0055714Y0067411D02*
X0039720Y0067411D01*
X0039720Y0066813D02*
X0055116Y0066813D01*
X0054517Y0066214D02*
X0039720Y0066214D01*
X0039720Y0065616D02*
X0053919Y0065616D01*
X0053320Y0065017D02*
X0039720Y0065017D01*
X0039668Y0064419D02*
X0052722Y0064419D01*
X0052123Y0063820D02*
X0039659Y0063820D01*
X0039720Y0063222D02*
X0051525Y0063222D01*
X0050926Y0062623D02*
X0039720Y0062623D01*
X0039720Y0062025D02*
X0050328Y0062025D01*
X0056116Y0064419D02*
X0102932Y0064419D01*
X0102941Y0063820D02*
X0083675Y0063820D01*
X0084011Y0063222D02*
X0102880Y0063222D01*
X0102880Y0062623D02*
X0084011Y0062623D01*
X0084011Y0062025D02*
X0102880Y0062025D01*
X0102880Y0065017D02*
X0056714Y0065017D01*
X0066300Y0056300D02*
X0071300Y0051300D01*
X0058589Y0050054D02*
X0039720Y0050054D01*
X0039705Y0049456D02*
X0058589Y0049456D01*
X0058589Y0048857D02*
X0039622Y0048857D01*
X0039720Y0048259D02*
X0058589Y0048259D01*
X0058589Y0047660D02*
X0039720Y0047660D01*
X0039720Y0047062D02*
X0058589Y0047062D01*
X0058589Y0046463D02*
X0039720Y0046463D01*
X0039720Y0045865D02*
X0058589Y0045865D01*
X0058589Y0045266D02*
X0039720Y0045266D01*
X0039720Y0044668D02*
X0058589Y0044668D01*
X0058589Y0044069D02*
X0039410Y0044069D01*
X0039720Y0043471D02*
X0058589Y0043471D01*
X0058589Y0042872D02*
X0039720Y0042872D01*
X0039720Y0042274D02*
X0058589Y0042274D01*
X0058589Y0041675D02*
X0039720Y0041675D01*
X0039720Y0041077D02*
X0058589Y0041077D01*
X0058589Y0040478D02*
X0039720Y0040478D01*
X0039720Y0039880D02*
X0058589Y0039880D01*
X0058589Y0039281D02*
X0039530Y0039281D01*
X0039720Y0038683D02*
X0059023Y0038683D01*
X0035867Y0066615D02*
X0024985Y0066615D01*
X0022300Y0069300D01*
X0022300Y0078689D01*
X0020623Y0076987D02*
X0020153Y0076987D01*
X0020153Y0076389D02*
X0021100Y0076389D01*
X0021100Y0075790D02*
X0020153Y0075790D01*
X0020153Y0075192D02*
X0021100Y0075192D01*
X0021100Y0074593D02*
X0020153Y0074593D01*
X0020153Y0073995D02*
X0021100Y0073995D01*
X0021100Y0073396D02*
X0020153Y0073396D01*
X0020153Y0072798D02*
X0021100Y0072798D01*
X0021100Y0072199D02*
X0020153Y0072199D01*
X0019645Y0071601D02*
X0021100Y0071601D01*
X0021100Y0071002D02*
X0019642Y0071002D01*
X0020153Y0070404D02*
X0021100Y0070404D01*
X0021100Y0069805D02*
X0020153Y0069805D01*
X0020153Y0069207D02*
X0021100Y0069207D01*
X0021295Y0068608D02*
X0020153Y0068608D01*
X0020153Y0068010D02*
X0021893Y0068010D01*
X0022492Y0067411D02*
X0020153Y0067411D01*
X0020153Y0066813D02*
X0023090Y0066813D01*
X0023689Y0066214D02*
X0020153Y0066214D01*
X0020153Y0065616D02*
X0024287Y0065616D01*
X0020153Y0065017D02*
X0032014Y0065017D01*
X0032066Y0064419D02*
X0019943Y0064419D01*
X0017500Y0063820D02*
X0032075Y0063820D01*
X0032014Y0063222D02*
X0017500Y0063222D01*
X0016300Y0061300D02*
X0016300Y0067560D01*
X0016300Y0061300D02*
X0016300Y0055040D01*
X0019992Y0050653D02*
X0032014Y0050653D01*
X0032014Y0051251D02*
X0005600Y0051251D01*
X0020153Y0050054D02*
X0032014Y0050054D01*
X0032029Y0049456D02*
X0020153Y0049456D01*
X0020153Y0048857D02*
X0032112Y0048857D01*
X0032014Y0048259D02*
X0020153Y0048259D01*
X0020153Y0047660D02*
X0032014Y0047660D01*
X0032014Y0047062D02*
X0020153Y0047062D01*
X0020153Y0046463D02*
X0032014Y0046463D01*
X0032014Y0045865D02*
X0020153Y0045865D01*
X0020153Y0045266D02*
X0032014Y0045266D01*
X0032014Y0044668D02*
X0020153Y0044668D01*
X0029300Y0070741D02*
X0028741Y0071300D01*
X0025300Y0071300D01*
X0024018Y0073396D02*
X0023500Y0073396D01*
X0023500Y0073995D02*
X0026313Y0073995D01*
X0026317Y0073979D02*
X0026488Y0073683D01*
X0026730Y0073441D01*
X0027027Y0073270D01*
X0027357Y0073181D01*
X0029000Y0073181D01*
X0029000Y0075559D01*
X0026228Y0075559D01*
X0026228Y0074310D01*
X0026317Y0073979D01*
X0026228Y0074593D02*
X0023500Y0074593D01*
X0023500Y0075192D02*
X0026228Y0075192D01*
X0026228Y0076159D02*
X0029000Y0076159D01*
X0029000Y0078537D01*
X0027357Y0078537D01*
X0027027Y0078448D01*
X0026730Y0078277D01*
X0026488Y0078035D01*
X0026317Y0077739D01*
X0026228Y0077408D01*
X0026228Y0076159D01*
X0026228Y0076389D02*
X0023500Y0076389D01*
X0023500Y0075790D02*
X0029000Y0075790D01*
X0029300Y0075859D02*
X0033544Y0071615D01*
X0029600Y0073396D02*
X0029000Y0073396D01*
X0029000Y0073995D02*
X0029600Y0073995D01*
X0029600Y0074593D02*
X0029000Y0074593D01*
X0029000Y0075192D02*
X0029600Y0075192D01*
X0029600Y0076389D02*
X0029000Y0076389D01*
X0029000Y0076987D02*
X0029600Y0076987D01*
X0029600Y0077586D02*
X0029000Y0077586D01*
X0029000Y0078184D02*
X0029600Y0078184D01*
X0031675Y0078783D02*
X0024689Y0078783D01*
X0024689Y0079381D02*
X0032071Y0079381D01*
X0032014Y0079980D02*
X0024388Y0079980D01*
X0023789Y0080578D02*
X0032014Y0080578D01*
X0026637Y0078184D02*
X0024689Y0078184D01*
X0024575Y0077586D02*
X0026276Y0077586D01*
X0026228Y0076987D02*
X0023977Y0076987D01*
X0026582Y0073396D02*
X0026807Y0073396D01*
X0024107Y0081775D02*
X0014647Y0081775D01*
X0014647Y0082972D02*
X0022891Y0082972D01*
X0023499Y0082374D02*
X0011571Y0082374D01*
X0011187Y0082368D02*
X0011187Y0080276D01*
X0009239Y0080276D01*
X0008908Y0080364D01*
X0008612Y0080535D01*
X0008370Y0080777D01*
X0008199Y0081074D01*
X0008110Y0081404D01*
X0008110Y0082368D01*
X0011187Y0082368D01*
X0011187Y0082374D02*
X0005600Y0082374D01*
X0005600Y0082972D02*
X0008110Y0082972D01*
X0008110Y0083571D02*
X0005600Y0083571D01*
X0005600Y0084170D02*
X0008270Y0084170D01*
X0008955Y0084768D02*
X0005600Y0084768D01*
X0005600Y0085367D02*
X0018353Y0085367D01*
X0018353Y0085965D02*
X0005600Y0085965D01*
X0005600Y0086564D02*
X0018353Y0086564D01*
X0018353Y0087162D02*
X0005600Y0087162D01*
X0005600Y0087761D02*
X0018456Y0087761D01*
X0020021Y0088359D02*
X0013923Y0088359D01*
X0013720Y0088156D02*
X0014247Y0088683D01*
X0014247Y0091397D01*
X0013720Y0091924D01*
X0013303Y0091924D01*
X0013689Y0092310D01*
X0013689Y0094290D01*
X0012290Y0095689D01*
X0010310Y0095689D01*
X0008911Y0094290D01*
X0008911Y0092310D01*
X0009297Y0091924D01*
X0009037Y0091924D01*
X0008510Y0091397D01*
X0008510Y0088683D01*
X0009037Y0088156D01*
X0013720Y0088156D01*
X0014247Y0088958D02*
X0020021Y0088958D01*
X0020021Y0089556D02*
X0014247Y0089556D01*
X0014247Y0090155D02*
X0020021Y0090155D01*
X0020021Y0090753D02*
X0014247Y0090753D01*
X0014247Y0091352D02*
X0020021Y0091352D01*
X0020021Y0091950D02*
X0013329Y0091950D01*
X0013689Y0092549D02*
X0020021Y0092549D01*
X0020021Y0093147D02*
X0013689Y0093147D01*
X0013689Y0093746D02*
X0020021Y0093746D01*
X0020021Y0094344D02*
X0013634Y0094344D01*
X0013036Y0094943D02*
X0016279Y0094943D01*
X0015680Y0095541D02*
X0012437Y0095541D01*
X0010163Y0095541D02*
X0005600Y0095541D01*
X0005600Y0094943D02*
X0009564Y0094943D01*
X0008966Y0094344D02*
X0005600Y0094344D01*
X0005600Y0093746D02*
X0008911Y0093746D01*
X0008911Y0093147D02*
X0005600Y0093147D01*
X0005600Y0092549D02*
X0008911Y0092549D01*
X0009271Y0091950D02*
X0005600Y0091950D01*
X0005600Y0091352D02*
X0008510Y0091352D01*
X0008510Y0090753D02*
X0005600Y0090753D01*
X0005600Y0090155D02*
X0008510Y0090155D01*
X0008510Y0089556D02*
X0005600Y0089556D01*
X0005600Y0088958D02*
X0008510Y0088958D01*
X0008834Y0088359D02*
X0005600Y0088359D01*
X0005600Y0081775D02*
X0008110Y0081775D01*
X0008171Y0081177D02*
X0005600Y0081177D01*
X0005600Y0080578D02*
X0008569Y0080578D01*
X0011187Y0080578D02*
X0011571Y0080578D01*
X0011571Y0081177D02*
X0011187Y0081177D01*
X0011187Y0081775D02*
X0011571Y0081775D01*
X0011571Y0082972D02*
X0011187Y0082972D01*
X0011187Y0083571D02*
X0011571Y0083571D01*
X0011571Y0084170D02*
X0011187Y0084170D01*
X0011187Y0084768D02*
X0011571Y0084768D01*
X0013802Y0084768D02*
X0018528Y0084768D01*
X0021221Y0086300D02*
X0025081Y0082500D01*
X0026300Y0083689D01*
X0028001Y0085367D02*
X0098670Y0085367D01*
X0100750Y0085750D02*
X0116528Y0085750D01*
X0116850Y0086072D01*
X0116850Y0121528D01*
X0111300Y0127078D01*
X0111300Y0136300D01*
X0115168Y0136240D02*
X0116921Y0136240D01*
X0116921Y0136839D02*
X0115168Y0136839D01*
X0115168Y0137437D02*
X0116921Y0137437D01*
X0116921Y0138036D02*
X0115168Y0138036D01*
X0115168Y0138634D02*
X0116921Y0138634D01*
X0116921Y0139233D02*
X0115168Y0139233D01*
X0115168Y0139831D02*
X0116921Y0139831D01*
X0116921Y0140430D02*
X0115006Y0140430D01*
X0114758Y0141028D02*
X0116921Y0141028D01*
X0116921Y0141627D02*
X0114413Y0141627D01*
X0113814Y0142225D02*
X0116921Y0142225D01*
X0116921Y0142824D02*
X0112826Y0142824D01*
X0109774Y0142824D02*
X0103669Y0142824D01*
X0103537Y0142919D02*
X0102939Y0143224D01*
X0102300Y0143432D01*
X0101636Y0143537D01*
X0101600Y0143537D01*
X0101600Y0136600D01*
X0105568Y0136600D01*
X0105568Y0139604D01*
X0105463Y0140268D01*
X0105256Y0140907D01*
X0104951Y0141506D01*
X0104556Y0142049D01*
X0104081Y0142524D01*
X0103537Y0142919D01*
X0104380Y0142225D02*
X0108786Y0142225D01*
X0108187Y0141627D02*
X0104863Y0141627D01*
X0105194Y0141028D02*
X0107842Y0141028D01*
X0107594Y0140430D02*
X0105411Y0140430D01*
X0105533Y0139831D02*
X0107431Y0139831D01*
X0107431Y0139233D02*
X0105568Y0139233D01*
X0105568Y0138634D02*
X0107431Y0138634D01*
X0107431Y0138036D02*
X0105568Y0138036D01*
X0105568Y0137437D02*
X0107431Y0137437D01*
X0107431Y0136839D02*
X0105568Y0136839D01*
X0105568Y0136000D02*
X0101600Y0136000D01*
X0101600Y0136600D01*
X0101000Y0136600D01*
X0101000Y0143537D01*
X0100964Y0143537D01*
X0100300Y0143432D01*
X0099661Y0143224D01*
X0099063Y0142919D01*
X0098519Y0142524D01*
X0098044Y0142049D01*
X0097649Y0141506D01*
X0097344Y0140907D01*
X0097137Y0140268D01*
X0097031Y0139604D01*
X0097031Y0136600D01*
X0101000Y0136600D01*
X0101000Y0136000D01*
X0101600Y0136000D01*
X0101600Y0129063D01*
X0101636Y0129063D01*
X0102300Y0129168D01*
X0102939Y0129376D01*
X0103537Y0129681D01*
X0104081Y0130076D01*
X0104556Y0130551D01*
X0104951Y0131094D01*
X0105256Y0131693D01*
X0105463Y0132332D01*
X0105568Y0132996D01*
X0105568Y0136000D01*
X0105568Y0135641D02*
X0107431Y0135641D01*
X0107431Y0135043D02*
X0105568Y0135043D01*
X0105568Y0134444D02*
X0107431Y0134444D01*
X0107431Y0133846D02*
X0105568Y0133846D01*
X0105568Y0133247D02*
X0107431Y0133247D01*
X0107431Y0132649D02*
X0105514Y0132649D01*
X0105372Y0132050D02*
X0107643Y0132050D01*
X0107891Y0131452D02*
X0105133Y0131452D01*
X0104776Y0130853D02*
X0108307Y0130853D01*
X0108906Y0130255D02*
X0104260Y0130255D01*
X0103489Y0129656D02*
X0110064Y0129656D01*
X0110100Y0129058D02*
X0075755Y0129058D01*
X0075156Y0128459D02*
X0110100Y0128459D01*
X0110100Y0127861D02*
X0074558Y0127861D01*
X0073959Y0127262D02*
X0110100Y0127262D01*
X0110100Y0126664D02*
X0073361Y0126664D01*
X0072762Y0126065D02*
X0110615Y0126065D01*
X0111214Y0125467D02*
X0072164Y0125467D01*
X0071300Y0126300D02*
X0036300Y0126300D01*
X0031850Y0121850D01*
X0026072Y0121850D01*
X0021221Y0116999D01*
X0021221Y0086300D01*
X0021675Y0084170D02*
X0014487Y0084170D01*
X0014647Y0083571D02*
X0022283Y0083571D01*
X0020021Y0094943D02*
X0018321Y0094943D01*
X0018920Y0095541D02*
X0020021Y0095541D01*
X0020021Y0096140D02*
X0019518Y0096140D01*
X0019689Y0096738D02*
X0020021Y0096738D01*
X0020021Y0097337D02*
X0019689Y0097337D01*
X0019689Y0097935D02*
X0020021Y0097935D01*
X0020021Y0098534D02*
X0019445Y0098534D01*
X0020021Y0099132D02*
X0018846Y0099132D01*
X0018500Y0099731D02*
X0020021Y0099731D01*
X0020021Y0100329D02*
X0018500Y0100329D01*
X0018500Y0100928D02*
X0020021Y0100928D01*
X0020021Y0101526D02*
X0018500Y0101526D01*
X0018500Y0102125D02*
X0020021Y0102125D01*
X0020021Y0102723D02*
X0018500Y0102723D01*
X0018500Y0103322D02*
X0020021Y0103322D01*
X0020021Y0103920D02*
X0018500Y0103920D01*
X0018500Y0104519D02*
X0020021Y0104519D01*
X0020021Y0105117D02*
X0018500Y0105117D01*
X0018500Y0105716D02*
X0020021Y0105716D01*
X0020021Y0106314D02*
X0018500Y0106314D01*
X0018500Y0106913D02*
X0020021Y0106913D01*
X0020021Y0107511D02*
X0018500Y0107511D01*
X0018500Y0108110D02*
X0020021Y0108110D01*
X0020021Y0108708D02*
X0018500Y0108708D01*
X0018500Y0109307D02*
X0020021Y0109307D01*
X0020021Y0109905D02*
X0018500Y0109905D01*
X0018500Y0110504D02*
X0020021Y0110504D01*
X0020021Y0111103D02*
X0018500Y0111103D01*
X0018500Y0111701D02*
X0020021Y0111701D01*
X0020021Y0112300D02*
X0018500Y0112300D01*
X0018500Y0112898D02*
X0020021Y0112898D01*
X0020021Y0113497D02*
X0018500Y0113497D01*
X0018500Y0114095D02*
X0020021Y0114095D01*
X0020021Y0114694D02*
X0018916Y0114694D01*
X0019514Y0115292D02*
X0020021Y0115292D01*
X0017916Y0117088D02*
X0005600Y0117088D01*
X0005600Y0117686D02*
X0018514Y0117686D01*
X0019113Y0118285D02*
X0005600Y0118285D01*
X0005600Y0118883D02*
X0019711Y0118883D01*
X0020310Y0119482D02*
X0005600Y0119482D01*
X0005600Y0120080D02*
X0020908Y0120080D01*
X0021507Y0120679D02*
X0005600Y0120679D01*
X0005600Y0121277D02*
X0022105Y0121277D01*
X0022704Y0121876D02*
X0005600Y0121876D01*
X0005600Y0122474D02*
X0023302Y0122474D01*
X0023901Y0123073D02*
X0005600Y0123073D01*
X0005600Y0123671D02*
X0024499Y0123671D01*
X0025575Y0123050D02*
X0017300Y0114775D01*
X0017300Y0097300D01*
X0015754Y0099132D02*
X0005600Y0099132D01*
X0005600Y0098534D02*
X0015155Y0098534D01*
X0014911Y0097935D02*
X0005600Y0097935D01*
X0005600Y0097337D02*
X0014911Y0097337D01*
X0014911Y0096738D02*
X0005600Y0096738D01*
X0005600Y0096140D02*
X0015082Y0096140D01*
X0016100Y0099731D02*
X0005600Y0099731D01*
X0005600Y0100329D02*
X0016100Y0100329D01*
X0016100Y0100928D02*
X0005600Y0100928D01*
X0005600Y0101526D02*
X0016100Y0101526D01*
X0016100Y0102125D02*
X0005600Y0102125D01*
X0005600Y0102723D02*
X0016100Y0102723D01*
X0016100Y0103322D02*
X0005600Y0103322D01*
X0005600Y0103920D02*
X0016100Y0103920D01*
X0016100Y0104519D02*
X0005600Y0104519D01*
X0005600Y0105117D02*
X0016100Y0105117D01*
X0016100Y0105716D02*
X0005600Y0105716D01*
X0005600Y0106314D02*
X0016100Y0106314D01*
X0016100Y0106913D02*
X0005600Y0106913D01*
X0005600Y0107511D02*
X0016100Y0107511D01*
X0016100Y0108110D02*
X0005600Y0108110D01*
X0005600Y0108708D02*
X0016100Y0108708D01*
X0016100Y0109307D02*
X0005600Y0109307D01*
X0005600Y0109905D02*
X0016100Y0109905D01*
X0016100Y0110504D02*
X0005600Y0110504D01*
X0005600Y0111103D02*
X0016100Y0111103D01*
X0016100Y0111701D02*
X0005600Y0111701D01*
X0005600Y0112300D02*
X0016100Y0112300D01*
X0016100Y0112898D02*
X0005600Y0112898D01*
X0005600Y0113497D02*
X0016100Y0113497D01*
X0016100Y0114095D02*
X0005600Y0114095D01*
X0005600Y0114694D02*
X0016100Y0114694D01*
X0016120Y0115292D02*
X0005600Y0115292D01*
X0005600Y0115891D02*
X0016719Y0115891D01*
X0017317Y0116489D02*
X0005600Y0116489D01*
X0005600Y0124270D02*
X0029573Y0124270D01*
X0030171Y0124868D02*
X0005600Y0124868D01*
X0005600Y0125467D02*
X0030770Y0125467D01*
X0031368Y0126065D02*
X0005600Y0126065D01*
X0005600Y0126664D02*
X0031967Y0126664D01*
X0032565Y0127262D02*
X0005600Y0127262D01*
X0005600Y0127861D02*
X0033164Y0127861D01*
X0033762Y0128459D02*
X0005600Y0128459D01*
X0005600Y0129058D02*
X0034361Y0129058D01*
X0035300Y0128300D02*
X0046300Y0128300D01*
X0051300Y0133300D01*
X0051300Y0136300D01*
X0055168Y0136240D02*
X0062431Y0136240D01*
X0062431Y0136839D02*
X0055168Y0136839D01*
X0055168Y0137437D02*
X0062431Y0137437D01*
X0062431Y0138036D02*
X0055168Y0138036D01*
X0055168Y0138634D02*
X0062431Y0138634D01*
X0062431Y0139233D02*
X0055168Y0139233D01*
X0055168Y0139831D02*
X0062431Y0139831D01*
X0062431Y0140038D02*
X0063020Y0141460D01*
X0064109Y0142548D01*
X0065530Y0143137D01*
X0067069Y0143137D01*
X0068491Y0142548D01*
X0069580Y0141460D01*
X0070168Y0140038D01*
X0070168Y0132562D01*
X0069580Y0131140D01*
X0068491Y0130052D01*
X0067069Y0129463D01*
X0065530Y0129463D01*
X0064109Y0130052D01*
X0063020Y0131140D01*
X0062431Y0132562D01*
X0062431Y0140038D01*
X0062594Y0140430D02*
X0055006Y0140430D01*
X0054758Y0141028D02*
X0062842Y0141028D01*
X0063187Y0141627D02*
X0054413Y0141627D01*
X0053814Y0142225D02*
X0063786Y0142225D01*
X0064774Y0142824D02*
X0052826Y0142824D01*
X0049774Y0142824D02*
X0043669Y0142824D01*
X0043537Y0142919D02*
X0044081Y0142524D01*
X0044556Y0142049D01*
X0044951Y0141506D01*
X0045256Y0140907D01*
X0045463Y0140268D01*
X0045568Y0139604D01*
X0045568Y0136600D01*
X0041600Y0136600D01*
X0041600Y0143537D01*
X0041636Y0143537D01*
X0042300Y0143432D01*
X0042939Y0143224D01*
X0043537Y0142919D01*
X0044380Y0142225D02*
X0048786Y0142225D01*
X0048187Y0141627D02*
X0044863Y0141627D01*
X0045194Y0141028D02*
X0047842Y0141028D01*
X0047594Y0140430D02*
X0045411Y0140430D01*
X0045533Y0139831D02*
X0047431Y0139831D01*
X0047431Y0139233D02*
X0045568Y0139233D01*
X0045568Y0138634D02*
X0047431Y0138634D01*
X0047431Y0138036D02*
X0045568Y0138036D01*
X0045568Y0137437D02*
X0047431Y0137437D01*
X0047431Y0136839D02*
X0045568Y0136839D01*
X0045568Y0135641D02*
X0047431Y0135641D01*
X0047431Y0135043D02*
X0045568Y0135043D01*
X0045568Y0134444D02*
X0047431Y0134444D01*
X0047431Y0133846D02*
X0045568Y0133846D01*
X0045568Y0133247D02*
X0047431Y0133247D01*
X0047431Y0132649D02*
X0045514Y0132649D01*
X0045372Y0132050D02*
X0047643Y0132050D01*
X0047755Y0131452D02*
X0045133Y0131452D01*
X0044776Y0130853D02*
X0047156Y0130853D01*
X0046558Y0130255D02*
X0044260Y0130255D01*
X0043489Y0129656D02*
X0045959Y0129656D01*
X0047558Y0127861D02*
X0071164Y0127861D01*
X0071762Y0128459D02*
X0048156Y0128459D01*
X0048755Y0129058D02*
X0072361Y0129058D01*
X0072959Y0129656D02*
X0067536Y0129656D01*
X0068694Y0130255D02*
X0073558Y0130255D01*
X0073307Y0130853D02*
X0069293Y0130853D01*
X0069709Y0131452D02*
X0072891Y0131452D01*
X0072643Y0132050D02*
X0069957Y0132050D01*
X0070168Y0132649D02*
X0072431Y0132649D01*
X0072431Y0133247D02*
X0070168Y0133247D01*
X0070168Y0133846D02*
X0072431Y0133846D01*
X0072431Y0134444D02*
X0070168Y0134444D01*
X0070168Y0135043D02*
X0072431Y0135043D01*
X0072431Y0135641D02*
X0070168Y0135641D01*
X0070168Y0136240D02*
X0072431Y0136240D01*
X0072431Y0136839D02*
X0070168Y0136839D01*
X0070168Y0137437D02*
X0072431Y0137437D01*
X0072431Y0138036D02*
X0070168Y0138036D01*
X0070168Y0138634D02*
X0072431Y0138634D01*
X0072431Y0139233D02*
X0070168Y0139233D01*
X0070168Y0139831D02*
X0072431Y0139831D01*
X0072594Y0140430D02*
X0070006Y0140430D01*
X0069758Y0141028D02*
X0072842Y0141028D01*
X0073187Y0141627D02*
X0069413Y0141627D01*
X0068814Y0142225D02*
X0073786Y0142225D01*
X0074774Y0142824D02*
X0067826Y0142824D01*
X0062431Y0135641D02*
X0055168Y0135641D01*
X0055168Y0135043D02*
X0062431Y0135043D01*
X0062431Y0134444D02*
X0055168Y0134444D01*
X0055168Y0133846D02*
X0062431Y0133846D01*
X0062431Y0133247D02*
X0055168Y0133247D01*
X0055168Y0132649D02*
X0062431Y0132649D01*
X0062643Y0132050D02*
X0054957Y0132050D01*
X0054709Y0131452D02*
X0062891Y0131452D01*
X0063307Y0130853D02*
X0054293Y0130853D01*
X0053694Y0130255D02*
X0063906Y0130255D01*
X0065064Y0129656D02*
X0052536Y0129656D01*
X0050064Y0129656D02*
X0049353Y0129656D01*
X0047431Y0136240D02*
X0041600Y0136240D01*
X0041600Y0136839D02*
X0041000Y0136839D01*
X0041000Y0137437D02*
X0041600Y0137437D01*
X0041600Y0138036D02*
X0041000Y0138036D01*
X0041000Y0138634D02*
X0041600Y0138634D01*
X0041600Y0139233D02*
X0041000Y0139233D01*
X0041000Y0139831D02*
X0041600Y0139831D01*
X0041600Y0140430D02*
X0041000Y0140430D01*
X0041000Y0141028D02*
X0041600Y0141028D01*
X0041600Y0141627D02*
X0041000Y0141627D01*
X0041000Y0142225D02*
X0041600Y0142225D01*
X0041600Y0142824D02*
X0041000Y0142824D01*
X0041000Y0143422D02*
X0041600Y0143422D01*
X0042330Y0143422D02*
X0100270Y0143422D01*
X0101000Y0143422D02*
X0101600Y0143422D01*
X0101600Y0142824D02*
X0101000Y0142824D01*
X0101000Y0142225D02*
X0101600Y0142225D01*
X0101600Y0141627D02*
X0101000Y0141627D01*
X0101000Y0141028D02*
X0101600Y0141028D01*
X0101600Y0140430D02*
X0101000Y0140430D01*
X0101000Y0139831D02*
X0101600Y0139831D01*
X0101600Y0139233D02*
X0101000Y0139233D01*
X0101000Y0138634D02*
X0101600Y0138634D01*
X0101600Y0138036D02*
X0101000Y0138036D01*
X0101000Y0137437D02*
X0101600Y0137437D01*
X0101600Y0136839D02*
X0101000Y0136839D01*
X0101000Y0136240D02*
X0095168Y0136240D01*
X0095168Y0136839D02*
X0097031Y0136839D01*
X0097031Y0137437D02*
X0095168Y0137437D01*
X0095168Y0138036D02*
X0097031Y0138036D01*
X0097031Y0138634D02*
X0095168Y0138634D01*
X0095168Y0139233D02*
X0097031Y0139233D01*
X0097067Y0139831D02*
X0095168Y0139831D01*
X0095168Y0140038D02*
X0094580Y0141460D01*
X0093491Y0142548D01*
X0092069Y0143137D01*
X0090530Y0143137D01*
X0089109Y0142548D01*
X0088020Y0141460D01*
X0087431Y0140038D01*
X0087431Y0132562D01*
X0088020Y0131140D01*
X0089109Y0130052D01*
X0090530Y0129463D01*
X0092069Y0129463D01*
X0093491Y0130052D01*
X0094580Y0131140D01*
X0095168Y0132562D01*
X0095168Y0140038D01*
X0095006Y0140430D02*
X0097189Y0140430D01*
X0097406Y0141028D02*
X0094758Y0141028D01*
X0094413Y0141627D02*
X0097737Y0141627D01*
X0098220Y0142225D02*
X0093814Y0142225D01*
X0092826Y0142824D02*
X0098931Y0142824D01*
X0102330Y0143422D02*
X0116921Y0143422D01*
X0116921Y0144021D02*
X0005600Y0144021D01*
X0005600Y0144619D02*
X0116921Y0144619D01*
X0116921Y0145218D02*
X0005600Y0145218D01*
X0005600Y0145816D02*
X0116921Y0145816D01*
X0116921Y0146415D02*
X0005600Y0146415D01*
X0005600Y0147013D02*
X0116921Y0147013D01*
X0116921Y0147612D02*
X0005600Y0147612D01*
X0005600Y0148210D02*
X0116921Y0148210D01*
X0116921Y0148809D02*
X0005600Y0148809D01*
X0005600Y0149407D02*
X0116921Y0149407D01*
X0116921Y0150006D02*
X0005600Y0150006D01*
X0005600Y0150604D02*
X0116921Y0150604D01*
X0107431Y0136240D02*
X0101600Y0136240D01*
X0101600Y0135641D02*
X0101000Y0135641D01*
X0101000Y0136000D02*
X0101000Y0129063D01*
X0100964Y0129063D01*
X0100300Y0129168D01*
X0099661Y0129376D01*
X0099063Y0129681D01*
X0098519Y0130076D01*
X0098044Y0130551D01*
X0097649Y0131094D01*
X0097344Y0131693D01*
X0097137Y0132332D01*
X0097031Y0132996D01*
X0097031Y0136000D01*
X0101000Y0136000D01*
X0101000Y0135043D02*
X0101600Y0135043D01*
X0101600Y0134444D02*
X0101000Y0134444D01*
X0101000Y0133846D02*
X0101600Y0133846D01*
X0101600Y0133247D02*
X0101000Y0133247D01*
X0101000Y0132649D02*
X0101600Y0132649D01*
X0101600Y0132050D02*
X0101000Y0132050D01*
X0101000Y0131452D02*
X0101600Y0131452D01*
X0101600Y0130853D02*
X0101000Y0130853D01*
X0101000Y0130255D02*
X0101600Y0130255D01*
X0101600Y0129656D02*
X0101000Y0129656D01*
X0099111Y0129656D02*
X0092536Y0129656D01*
X0093694Y0130255D02*
X0098340Y0130255D01*
X0097824Y0130853D02*
X0094293Y0130853D01*
X0094709Y0131452D02*
X0097467Y0131452D01*
X0097228Y0132050D02*
X0094957Y0132050D01*
X0095168Y0132649D02*
X0097086Y0132649D01*
X0097031Y0133247D02*
X0095168Y0133247D01*
X0095168Y0133846D02*
X0097031Y0133846D01*
X0097031Y0134444D02*
X0095168Y0134444D01*
X0095168Y0135043D02*
X0097031Y0135043D01*
X0097031Y0135641D02*
X0095168Y0135641D01*
X0090064Y0129656D02*
X0077536Y0129656D01*
X0078694Y0130255D02*
X0088906Y0130255D01*
X0088307Y0130853D02*
X0079293Y0130853D01*
X0079709Y0131452D02*
X0087891Y0131452D01*
X0087643Y0132050D02*
X0079957Y0132050D01*
X0080168Y0132649D02*
X0087431Y0132649D01*
X0087431Y0133247D02*
X0080168Y0133247D01*
X0080168Y0133846D02*
X0087431Y0133846D01*
X0087431Y0134444D02*
X0080168Y0134444D01*
X0080168Y0135043D02*
X0087431Y0135043D01*
X0087431Y0135641D02*
X0080168Y0135641D01*
X0080168Y0136240D02*
X0087431Y0136240D01*
X0087431Y0136839D02*
X0080168Y0136839D01*
X0080168Y0137437D02*
X0087431Y0137437D01*
X0087431Y0138036D02*
X0080168Y0138036D01*
X0080168Y0138634D02*
X0087431Y0138634D01*
X0087431Y0139233D02*
X0080168Y0139233D01*
X0080168Y0139831D02*
X0087431Y0139831D01*
X0087594Y0140430D02*
X0080006Y0140430D01*
X0079758Y0141028D02*
X0087842Y0141028D01*
X0088187Y0141627D02*
X0079413Y0141627D01*
X0078814Y0142225D02*
X0088786Y0142225D01*
X0089774Y0142824D02*
X0077826Y0142824D01*
X0076300Y0136300D02*
X0076300Y0131300D01*
X0071300Y0126300D01*
X0041000Y0136240D02*
X0035168Y0136240D01*
X0035168Y0136839D02*
X0037031Y0136839D01*
X0037031Y0137437D02*
X0035168Y0137437D01*
X0035168Y0138036D02*
X0037031Y0138036D01*
X0037031Y0138634D02*
X0035168Y0138634D01*
X0035168Y0139233D02*
X0037031Y0139233D01*
X0037067Y0139831D02*
X0035168Y0139831D01*
X0035168Y0140038D02*
X0034580Y0141460D01*
X0033491Y0142548D01*
X0032069Y0143137D01*
X0030530Y0143137D01*
X0029109Y0142548D01*
X0028020Y0141460D01*
X0027431Y0140038D01*
X0027431Y0132562D01*
X0028020Y0131140D01*
X0029109Y0130052D01*
X0030530Y0129463D01*
X0032069Y0129463D01*
X0033491Y0130052D01*
X0034580Y0131140D01*
X0035168Y0132562D01*
X0035168Y0140038D01*
X0035006Y0140430D02*
X0037189Y0140430D01*
X0037406Y0141028D02*
X0034758Y0141028D01*
X0034413Y0141627D02*
X0037737Y0141627D01*
X0038220Y0142225D02*
X0033814Y0142225D01*
X0032826Y0142824D02*
X0038931Y0142824D01*
X0040270Y0143422D02*
X0005600Y0143422D01*
X0005600Y0142824D02*
X0029774Y0142824D01*
X0028786Y0142225D02*
X0005600Y0142225D01*
X0005600Y0141627D02*
X0028187Y0141627D01*
X0027842Y0141028D02*
X0005600Y0141028D01*
X0005600Y0140430D02*
X0027594Y0140430D01*
X0027431Y0139831D02*
X0005600Y0139831D01*
X0005600Y0139233D02*
X0027431Y0139233D01*
X0027431Y0138634D02*
X0005600Y0138634D01*
X0005600Y0138036D02*
X0027431Y0138036D01*
X0027431Y0137437D02*
X0005600Y0137437D01*
X0005600Y0136839D02*
X0027431Y0136839D01*
X0027431Y0136240D02*
X0005600Y0136240D01*
X0005600Y0135641D02*
X0027431Y0135641D01*
X0027431Y0135043D02*
X0005600Y0135043D01*
X0005600Y0134444D02*
X0027431Y0134444D01*
X0027431Y0133846D02*
X0005600Y0133846D01*
X0005600Y0133247D02*
X0027431Y0133247D01*
X0027431Y0132649D02*
X0005600Y0132649D01*
X0005600Y0132050D02*
X0027643Y0132050D01*
X0027891Y0131452D02*
X0005600Y0131452D01*
X0005600Y0130853D02*
X0028307Y0130853D01*
X0028906Y0130255D02*
X0005600Y0130255D01*
X0005600Y0129656D02*
X0030064Y0129656D01*
X0032536Y0129656D02*
X0039111Y0129656D01*
X0038340Y0130255D02*
X0033694Y0130255D01*
X0034293Y0130853D02*
X0037824Y0130853D01*
X0037467Y0131452D02*
X0034709Y0131452D01*
X0034957Y0132050D02*
X0037228Y0132050D01*
X0037086Y0132649D02*
X0035168Y0132649D01*
X0035168Y0133247D02*
X0037031Y0133247D01*
X0037031Y0133846D02*
X0035168Y0133846D01*
X0035168Y0134444D02*
X0037031Y0134444D01*
X0037031Y0135043D02*
X0035168Y0135043D01*
X0035168Y0135641D02*
X0037031Y0135641D01*
X0035300Y0128300D02*
X0030050Y0123050D01*
X0025575Y0123050D01*
X0033573Y0121876D02*
X0114805Y0121876D01*
X0114207Y0122474D02*
X0034171Y0122474D01*
X0034770Y0123073D02*
X0113608Y0123073D01*
X0113010Y0123671D02*
X0035368Y0123671D01*
X0035967Y0124270D02*
X0112411Y0124270D01*
X0111812Y0124868D02*
X0036565Y0124868D01*
X0011300Y0093300D02*
X0011300Y0092379D01*
X0011379Y0092300D01*
X0011379Y0090040D01*
X0005600Y0006363D02*
X0116921Y0006363D01*
X0116921Y0005765D02*
X0005600Y0005765D01*
X0091889Y0075192D02*
X0102880Y0075192D01*
X0102880Y0075790D02*
X0092487Y0075790D01*
X0092500Y0075803D02*
X0092500Y0075803D01*
X0093086Y0076389D02*
X0102880Y0076389D01*
X0102880Y0076987D02*
X0093684Y0076987D01*
X0094283Y0077586D02*
X0102880Y0077586D01*
X0102880Y0078184D02*
X0094881Y0078184D01*
X0095480Y0078783D02*
X0102904Y0078783D01*
X0102969Y0079381D02*
X0096078Y0079381D01*
X0096677Y0079980D02*
X0102880Y0079980D01*
X0102880Y0080578D02*
X0097275Y0080578D01*
X0097874Y0081177D02*
X0102880Y0081177D01*
X0102880Y0081775D02*
X0098473Y0081775D01*
X0099071Y0082374D02*
X0102880Y0082374D01*
X0102880Y0082972D02*
X0099670Y0082972D01*
X0100268Y0083571D02*
X0102880Y0083571D01*
X0103290Y0084170D02*
X0100867Y0084170D01*
X0100750Y0085750D02*
X0091300Y0076300D01*
X0110350Y0073995D02*
X0116921Y0073995D01*
X0116921Y0074593D02*
X0110586Y0074593D01*
X0110586Y0075192D02*
X0116921Y0075192D01*
X0116921Y0075790D02*
X0110586Y0075790D01*
X0110586Y0076389D02*
X0116921Y0076389D01*
X0116921Y0076987D02*
X0110586Y0076987D01*
X0110586Y0077586D02*
X0116921Y0077586D01*
X0116921Y0078184D02*
X0110586Y0078184D01*
X0110562Y0078783D02*
X0116921Y0078783D01*
X0116921Y0079381D02*
X0110497Y0079381D01*
X0110586Y0079980D02*
X0116921Y0079980D01*
X0116921Y0080578D02*
X0110586Y0080578D01*
X0110586Y0081177D02*
X0116921Y0081177D01*
X0116921Y0081775D02*
X0110586Y0081775D01*
X0110586Y0082374D02*
X0116921Y0082374D01*
X0116921Y0082972D02*
X0110586Y0082972D01*
X0110586Y0083571D02*
X0116921Y0083571D01*
X0116921Y0084170D02*
X0110176Y0084170D01*
X0110586Y0073396D02*
X0116921Y0073396D01*
X0116921Y0072798D02*
X0110586Y0072798D01*
X0110586Y0072199D02*
X0116921Y0072199D01*
X0116921Y0071601D02*
X0110586Y0071601D01*
X0110586Y0071002D02*
X0116921Y0071002D01*
X0116921Y0070404D02*
X0110586Y0070404D01*
X0110586Y0069805D02*
X0116921Y0069805D01*
X0116921Y0069207D02*
X0110322Y0069207D01*
X0110586Y0068608D02*
X0116921Y0068608D01*
X0116921Y0068010D02*
X0110586Y0068010D01*
X0110586Y0067411D02*
X0116921Y0067411D01*
X0116921Y0066813D02*
X0110586Y0066813D01*
X0110586Y0066214D02*
X0116921Y0066214D01*
X0116921Y0065616D02*
X0110586Y0065616D01*
X0110586Y0065017D02*
X0116921Y0065017D01*
X0116921Y0064419D02*
X0110534Y0064419D01*
X0110525Y0063820D02*
X0116921Y0063820D01*
X0116921Y0063222D02*
X0110586Y0063222D01*
X0110586Y0062623D02*
X0116921Y0062623D01*
X0116921Y0062025D02*
X0110586Y0062025D01*
X0110586Y0061426D02*
X0116921Y0061426D01*
X0116921Y0060828D02*
X0110586Y0060828D01*
X0110586Y0060229D02*
X0116921Y0060229D01*
X0116921Y0059631D02*
X0110586Y0059631D01*
X0110313Y0059032D02*
X0116921Y0059032D01*
X0116921Y0058434D02*
X0110586Y0058434D01*
X0110586Y0057835D02*
X0116921Y0057835D01*
X0116921Y0057237D02*
X0110586Y0057237D01*
X0110586Y0056638D02*
X0116921Y0056638D01*
X0116921Y0056039D02*
X0110586Y0056039D01*
X0110586Y0055441D02*
X0116921Y0055441D01*
X0116921Y0054842D02*
X0110586Y0054842D01*
X0110359Y0054244D02*
X0116921Y0054244D01*
X0116921Y0053645D02*
X0110586Y0053645D01*
X0110586Y0053047D02*
X0116921Y0053047D01*
X0116921Y0052448D02*
X0110586Y0052448D01*
X0110586Y0051850D02*
X0116921Y0051850D01*
X0116921Y0051251D02*
X0110586Y0051251D01*
X0110586Y0050653D02*
X0116921Y0050653D01*
X0116921Y0050054D02*
X0110586Y0050054D01*
X0110571Y0049456D02*
X0116921Y0049456D01*
X0116921Y0048857D02*
X0110488Y0048857D01*
X0110586Y0048259D02*
X0116921Y0048259D01*
X0116921Y0047660D02*
X0110586Y0047660D01*
X0110586Y0047062D02*
X0116921Y0047062D01*
X0116921Y0046463D02*
X0110586Y0046463D01*
X0110586Y0045865D02*
X0116921Y0045865D01*
X0116921Y0045266D02*
X0110586Y0045266D01*
X0110586Y0044668D02*
X0116921Y0044668D01*
X0116921Y0044069D02*
X0110276Y0044069D01*
X0110586Y0043471D02*
X0116921Y0043471D01*
X0116921Y0042872D02*
X0110586Y0042872D01*
X0110586Y0042274D02*
X0116921Y0042274D01*
X0116921Y0041675D02*
X0110586Y0041675D01*
X0110586Y0041077D02*
X0116921Y0041077D01*
X0116921Y0040478D02*
X0110586Y0040478D01*
X0110586Y0039880D02*
X0116921Y0039880D01*
X0116921Y0039281D02*
X0110396Y0039281D01*
X0110586Y0038683D02*
X0116921Y0038683D01*
X0116921Y0038084D02*
X0110586Y0038084D01*
X0110586Y0037486D02*
X0116921Y0037486D01*
X0116921Y0036887D02*
X0110586Y0036887D01*
X0110586Y0036289D02*
X0116921Y0036289D01*
X0116921Y0035690D02*
X0110586Y0035690D01*
X0110586Y0035092D02*
X0116921Y0035092D01*
X0116921Y0034493D02*
X0110586Y0034493D01*
X0110451Y0033895D02*
X0116921Y0033895D01*
X0116921Y0033296D02*
X0110586Y0033296D01*
X0110586Y0032698D02*
X0116921Y0032698D01*
X0116921Y0032099D02*
X0110586Y0032099D01*
X0110586Y0031501D02*
X0116921Y0031501D01*
X0116921Y0030902D02*
X0110586Y0030902D01*
X0110586Y0030303D02*
X0116921Y0030303D01*
X0116921Y0029705D02*
X0110586Y0029705D01*
X0110239Y0029106D02*
X0116921Y0029106D01*
X0116921Y0028508D02*
X0110586Y0028508D01*
X0110586Y0027909D02*
X0116921Y0027909D01*
X0116921Y0027311D02*
X0110586Y0027311D01*
X0110586Y0026712D02*
X0116921Y0026712D01*
X0116921Y0026114D02*
X0110586Y0026114D01*
X0110586Y0025515D02*
X0116921Y0025515D01*
X0116921Y0024917D02*
X0110586Y0024917D01*
X0110434Y0024318D02*
X0116921Y0024318D01*
X0116921Y0023720D02*
X0110586Y0023720D01*
X0110586Y0023121D02*
X0116921Y0023121D01*
X0116921Y0022523D02*
X0110586Y0022523D01*
X0110586Y0021924D02*
X0116921Y0021924D01*
X0116921Y0021326D02*
X0110586Y0021326D01*
X0110586Y0020727D02*
X0116921Y0020727D01*
X0116921Y0020129D02*
X0110586Y0020129D01*
X0110586Y0019530D02*
X0116921Y0019530D01*
X0116921Y0018932D02*
X0110413Y0018932D01*
X0110586Y0018333D02*
X0116921Y0018333D01*
X0116921Y0017735D02*
X0110586Y0017735D01*
X0110586Y0017136D02*
X0116921Y0017136D01*
X0116921Y0016538D02*
X0110586Y0016538D01*
X0110586Y0015939D02*
X0116921Y0015939D01*
X0116921Y0015341D02*
X0110586Y0015341D01*
X0110586Y0014742D02*
X0116921Y0014742D01*
X0116921Y0014144D02*
X0110259Y0014144D01*
X0116404Y0123671D02*
X0116921Y0123671D01*
X0116921Y0124270D02*
X0115805Y0124270D01*
X0115207Y0124868D02*
X0116921Y0124868D01*
X0116921Y0125467D02*
X0114608Y0125467D01*
X0114010Y0126065D02*
X0116921Y0126065D01*
X0116921Y0126664D02*
X0113411Y0126664D01*
X0112813Y0127262D02*
X0116921Y0127262D01*
X0116921Y0127861D02*
X0112500Y0127861D01*
X0112500Y0128459D02*
X0116921Y0128459D01*
X0116921Y0129058D02*
X0112500Y0129058D01*
X0112536Y0129656D02*
X0116921Y0129656D01*
X0116921Y0130255D02*
X0113694Y0130255D01*
X0114293Y0130853D02*
X0116921Y0130853D01*
X0116921Y0131452D02*
X0114709Y0131452D01*
X0114957Y0132050D02*
X0116921Y0132050D01*
X0116921Y0132649D02*
X0115168Y0132649D01*
X0115168Y0133247D02*
X0116921Y0133247D01*
X0116921Y0133846D02*
X0115168Y0133846D01*
X0115168Y0134444D02*
X0116921Y0134444D01*
X0116921Y0135043D02*
X0115168Y0135043D01*
X0115168Y0135641D02*
X0116921Y0135641D01*
M02*
