G75*
%MOIN*%
%OFA0B0*%
%FSLAX25Y25*%
%IPPOS*%
%LPD*%
%AMOC8*
5,1,8,0,0,1.08239X$1,22.5*
%
%ADD10C,0.00600*%
%ADD11C,0.01000*%
%ADD12C,0.00500*%
%ADD13C,0.00800*%
D10*
X0040733Y0144956D02*
X0040733Y0149222D01*
X0038600Y0147089D02*
X0042867Y0147089D01*
X0033867Y0147089D02*
X0029600Y0147089D01*
X0065600Y0146089D02*
X0069867Y0146089D01*
X0073600Y0147089D02*
X0077867Y0147089D01*
X0075733Y0144956D02*
X0075733Y0149222D01*
X0090600Y0146089D02*
X0094867Y0146089D01*
X0098600Y0147089D02*
X0102867Y0147089D01*
X0100733Y0144956D02*
X0100733Y0149222D01*
D11*
X0086300Y0148800D02*
X0086300Y0141300D01*
X0116300Y0141300D01*
X0116300Y0123800D01*
X0086300Y0123800D01*
X0086300Y0141300D01*
X0081300Y0141300D02*
X0061300Y0141300D01*
X0061300Y0148800D01*
X0081300Y0148800D01*
X0081300Y0141300D01*
X0081300Y0123800D01*
X0061300Y0123800D01*
X0061300Y0141300D01*
X0056300Y0141300D02*
X0026300Y0141300D01*
X0026300Y0148800D01*
X0056300Y0148800D01*
X0056300Y0141300D01*
X0056300Y0123800D01*
X0026300Y0123800D01*
X0026300Y0141300D01*
X0086300Y0148800D02*
X0116300Y0148800D01*
X0116300Y0141300D01*
D12*
X0018859Y0092009D02*
X0018859Y0080591D01*
X0013741Y0080591D01*
X0013741Y0092009D01*
X0018859Y0092009D01*
D13*
X0035367Y0014292D02*
X0035367Y0010249D01*
X0046300Y0010249D01*
X0096300Y0010249D02*
X0107233Y0010249D01*
X0107233Y0014292D01*
X0107233Y0084020D02*
X0107233Y0111643D01*
X0035367Y0111643D01*
X0035367Y0084020D01*
M02*
