G75*
%MOIN*%
%OFA0B0*%
%FSLAX25Y25*%
%IPPOS*%
%LPD*%
%AMOC8*
5,1,8,0,0,1.08239X$1,22.5*
%
%ADD10C,0.06737*%
%ADD11R,0.04737X0.02769*%
%ADD12R,0.06706X0.04343*%
%ADD13R,0.04343X0.06706*%
%ADD14R,0.24422X0.24422*%
%ADD15R,0.06706X0.05918*%
%ADD16R,0.04343X0.03556*%
%ADD17C,0.03778*%
D10*
X0031300Y0133331D02*
X0031300Y0139269D01*
X0041300Y0139269D02*
X0041300Y0133331D01*
X0051300Y0133331D02*
X0051300Y0139269D01*
X0066300Y0139269D02*
X0066300Y0133331D01*
X0076300Y0133331D02*
X0076300Y0139269D01*
X0091300Y0139269D02*
X0091300Y0133331D01*
X0101300Y0133331D02*
X0101300Y0139269D01*
X0111300Y0139269D02*
X0111300Y0133331D01*
D11*
X0021221Y0086300D03*
X0011379Y0082560D03*
X0011379Y0090040D03*
D12*
X0035867Y0016615D03*
X0035867Y0021615D03*
X0035867Y0026615D03*
X0035867Y0031615D03*
X0035867Y0036615D03*
X0035867Y0041615D03*
X0035867Y0046615D03*
X0035867Y0051615D03*
X0035867Y0056615D03*
X0035867Y0061615D03*
X0035867Y0066615D03*
X0035867Y0071615D03*
X0035867Y0076615D03*
X0035867Y0081615D03*
X0106733Y0081615D03*
X0106733Y0076615D03*
X0106733Y0071615D03*
X0106733Y0066615D03*
X0106733Y0061615D03*
X0106733Y0056615D03*
X0106733Y0051615D03*
X0106733Y0046615D03*
X0106733Y0041615D03*
X0106733Y0036615D03*
X0106733Y0031615D03*
X0106733Y0026615D03*
X0106733Y0021615D03*
X0106733Y0016615D03*
D13*
X0093800Y0010749D03*
X0088800Y0010749D03*
X0083800Y0010749D03*
X0078800Y0010749D03*
X0073800Y0010749D03*
X0068800Y0010749D03*
X0063800Y0010749D03*
X0058800Y0010749D03*
X0053800Y0010749D03*
X0048800Y0010749D03*
D14*
X0071300Y0051300D03*
D15*
X0016300Y0047560D03*
X0016300Y0055040D03*
X0016300Y0067560D03*
X0016300Y0075040D03*
D16*
X0029300Y0075859D03*
X0029300Y0070741D03*
D17*
X0025300Y0071300D03*
X0022300Y0078689D03*
X0026300Y0083689D03*
X0016300Y0075040D03*
X0011300Y0093300D03*
X0017300Y0097300D03*
X0016300Y0047560D03*
X0061300Y0046300D03*
X0061300Y0041300D03*
X0066300Y0041300D03*
X0066300Y0046300D03*
X0066300Y0051300D03*
X0066300Y0056300D03*
X0066300Y0061300D03*
X0061300Y0061300D03*
X0061300Y0056300D03*
X0061300Y0051300D03*
X0071300Y0046300D03*
X0071300Y0041300D03*
X0076300Y0041300D03*
X0076300Y0046300D03*
X0076300Y0051300D03*
X0076300Y0056300D03*
X0076300Y0061300D03*
X0071300Y0061300D03*
X0071300Y0056300D03*
X0081300Y0056300D03*
X0081300Y0051300D03*
X0081300Y0046300D03*
X0081300Y0041300D03*
X0081300Y0061300D03*
M02*
