G75*
%MOIN*%
%OFA0B0*%
%FSLAX25Y25*%
%IPPOS*%
%LPD*%
%AMOC8*
5,1,8,0,0,1.08239X$1,22.5*
%
%ADD10R,0.06706X0.04343*%
%ADD11R,0.04343X0.06706*%
%ADD12R,0.24422X0.24422*%
%ADD13R,0.06312X0.07099*%
%ADD14R,0.06706X0.05918*%
%ADD15C,0.06800*%
%ADD16C,0.06800*%
%ADD17OC8,0.06800*%
%ADD18C,0.06737*%
%ADD19R,0.07099X0.05918*%
%ADD20R,0.02769X0.04737*%
%ADD21R,0.05918X0.07099*%
%ADD22R,0.04737X0.06312*%
%ADD23R,0.03556X0.04343*%
%ADD24C,0.03778*%
D10*
X0049201Y0245248D03*
X0049201Y0250248D03*
X0049201Y0255248D03*
X0049201Y0260248D03*
X0049201Y0265248D03*
X0049201Y0270248D03*
X0049201Y0275248D03*
X0049201Y0280248D03*
X0049201Y0285248D03*
X0049201Y0290248D03*
X0049201Y0295248D03*
X0049201Y0300248D03*
X0049201Y0305248D03*
X0049201Y0310248D03*
X0120067Y0310248D03*
X0120067Y0305248D03*
X0120067Y0300248D03*
X0120067Y0295248D03*
X0120067Y0290248D03*
X0120067Y0285248D03*
X0120067Y0280248D03*
X0120067Y0275248D03*
X0120067Y0270248D03*
X0120067Y0265248D03*
X0120067Y0260248D03*
X0120067Y0255248D03*
X0120067Y0250248D03*
X0120067Y0245248D03*
D11*
X0107134Y0239382D03*
X0102134Y0239382D03*
X0097134Y0239382D03*
X0092134Y0239382D03*
X0087134Y0239382D03*
X0082134Y0239382D03*
X0077134Y0239382D03*
X0072134Y0239382D03*
X0067134Y0239382D03*
X0062134Y0239382D03*
D12*
X0084634Y0279933D03*
D13*
X0151634Y0240697D03*
X0151634Y0211169D03*
X0014634Y0295169D03*
X0014634Y0324697D03*
D14*
X0025634Y0303673D03*
X0025634Y0296193D03*
D15*
X0029634Y0122933D02*
X0029634Y0116933D01*
X0039634Y0116933D02*
X0039634Y0122933D01*
X0049634Y0122933D02*
X0049634Y0116933D01*
X0059634Y0116933D02*
X0059634Y0122933D01*
X0069634Y0122933D02*
X0069634Y0116933D01*
X0079634Y0116933D02*
X0079634Y0122933D01*
X0089634Y0122933D02*
X0089634Y0116933D01*
X0146634Y0249933D02*
X0152634Y0249933D01*
X0152634Y0259933D02*
X0146634Y0259933D01*
X0146634Y0269933D02*
X0152634Y0269933D01*
X0147634Y0294933D02*
X0141634Y0294933D01*
X0141634Y0304933D02*
X0147634Y0304933D01*
X0147634Y0314933D02*
X0141634Y0314933D01*
X0141634Y0324933D02*
X0147634Y0324933D01*
D16*
X0089634Y0214933D03*
D17*
X0089634Y0204933D03*
X0079634Y0204933D03*
X0079634Y0214933D03*
X0069634Y0214933D03*
X0069634Y0204933D03*
D18*
X0119634Y0202902D02*
X0119634Y0196965D01*
X0129634Y0196965D02*
X0129634Y0202902D01*
X0150666Y0191933D02*
X0156603Y0191933D01*
X0156603Y0181933D02*
X0150666Y0181933D01*
X0150666Y0163933D02*
X0156603Y0163933D01*
X0156603Y0153933D02*
X0150666Y0153933D01*
D19*
X0029634Y0051193D03*
X0029634Y0058673D03*
X0044634Y0058673D03*
X0044634Y0051193D03*
X0059634Y0051193D03*
X0059634Y0058673D03*
X0074634Y0058673D03*
X0074634Y0051193D03*
X0089634Y0051193D03*
X0089634Y0058673D03*
X0104634Y0058673D03*
X0104634Y0051193D03*
X0104634Y0091193D03*
X0104634Y0098673D03*
X0089634Y0098673D03*
X0089634Y0091193D03*
X0074634Y0091193D03*
X0074634Y0098673D03*
X0059634Y0098673D03*
X0059634Y0091193D03*
X0044634Y0091193D03*
X0044634Y0098673D03*
X0029634Y0098673D03*
X0029634Y0091193D03*
X0034634Y0141193D03*
X0034634Y0148673D03*
X0034634Y0161193D03*
X0034634Y0168673D03*
X0044634Y0168673D03*
X0044634Y0161193D03*
X0044634Y0148673D03*
X0044634Y0141193D03*
X0054634Y0141193D03*
X0054634Y0148673D03*
X0064634Y0148673D03*
X0064634Y0141193D03*
X0074634Y0141193D03*
X0074634Y0148673D03*
X0074634Y0161193D03*
X0074634Y0168673D03*
X0064634Y0168673D03*
X0064634Y0161193D03*
X0054634Y0161193D03*
X0054634Y0168673D03*
X0084634Y0168673D03*
X0084634Y0161193D03*
X0084634Y0148673D03*
X0084634Y0141193D03*
D20*
X0024634Y0280012D03*
X0020894Y0289854D03*
X0028374Y0289854D03*
D21*
X0105894Y0219933D03*
X0113374Y0219933D03*
X0125894Y0219933D03*
X0133374Y0219933D03*
D22*
X0108374Y0079264D03*
X0100894Y0079264D03*
X0104634Y0070602D03*
X0093374Y0079264D03*
X0089634Y0070602D03*
X0085894Y0079264D03*
X0078374Y0079264D03*
X0074634Y0070602D03*
X0070894Y0079264D03*
X0063374Y0079264D03*
X0059634Y0070602D03*
X0055894Y0079264D03*
X0048374Y0079264D03*
X0044634Y0070602D03*
X0040894Y0079264D03*
X0033374Y0079264D03*
X0025894Y0079264D03*
X0029634Y0070602D03*
D23*
X0036075Y0297933D03*
X0041193Y0297933D03*
D24*
X0034634Y0293933D03*
X0024634Y0280012D03*
X0029634Y0259933D03*
X0034634Y0259933D03*
X0039634Y0259933D03*
X0043634Y0259933D03*
X0049201Y0260248D03*
X0049201Y0265248D03*
X0054634Y0228933D03*
X0058634Y0228933D03*
X0054634Y0179933D03*
X0062634Y0174933D03*
X0064634Y0154933D03*
X0054634Y0154933D03*
X0044634Y0154933D03*
X0034634Y0154933D03*
X0026634Y0128933D03*
X0023634Y0103933D03*
X0021023Y0091933D03*
X0029634Y0070602D03*
X0044634Y0070544D03*
X0059634Y0070602D03*
X0074634Y0070602D03*
X0089634Y0070602D03*
X0116634Y0137933D03*
X0103634Y0156933D03*
X0118634Y0171933D03*
X0130634Y0137933D03*
X0084634Y0154933D03*
X0074634Y0154933D03*
X0134634Y0238933D03*
X0139634Y0238933D03*
X0139634Y0252933D03*
X0134634Y0252933D03*
X0056634Y0306933D03*
M02*
