G75*
%MOIN*%
%OFA0B0*%
%FSLAX25Y25*%
%IPPOS*%
%LPD*%
%AMOC8*
5,1,8,0,0,1.08239X$1,22.5*
%
%ADD10C,0.06800*%
%ADD11C,0.06800*%
%ADD12OC8,0.06800*%
%ADD13C,0.06737*%
%ADD14C,0.03778*%
D10*
X0029634Y0116933D02*
X0029634Y0122933D01*
X0039634Y0122933D02*
X0039634Y0116933D01*
X0049634Y0116933D02*
X0049634Y0122933D01*
X0059634Y0122933D02*
X0059634Y0116933D01*
X0069634Y0116933D02*
X0069634Y0122933D01*
X0079634Y0122933D02*
X0079634Y0116933D01*
X0089634Y0116933D02*
X0089634Y0122933D01*
X0146634Y0249933D02*
X0152634Y0249933D01*
X0152634Y0259933D02*
X0146634Y0259933D01*
X0146634Y0269933D02*
X0152634Y0269933D01*
X0147634Y0294933D02*
X0141634Y0294933D01*
X0141634Y0304933D02*
X0147634Y0304933D01*
X0147634Y0314933D02*
X0141634Y0314933D01*
X0141634Y0324933D02*
X0147634Y0324933D01*
D11*
X0089634Y0214933D03*
D12*
X0089634Y0204933D03*
X0079634Y0204933D03*
X0079634Y0214933D03*
X0069634Y0214933D03*
X0069634Y0204933D03*
D13*
X0119634Y0202902D02*
X0119634Y0196965D01*
X0129634Y0196965D02*
X0129634Y0202902D01*
X0150666Y0191933D02*
X0156603Y0191933D01*
X0156603Y0181933D02*
X0150666Y0181933D01*
X0150666Y0163933D02*
X0156603Y0163933D01*
X0156603Y0153933D02*
X0150666Y0153933D01*
D14*
X0029634Y0070602D03*
X0021023Y0091933D03*
X0023634Y0103933D03*
X0026634Y0128933D03*
X0034634Y0154933D03*
X0044634Y0154933D03*
X0054634Y0154933D03*
X0064634Y0154933D03*
X0074634Y0154933D03*
X0084634Y0154933D03*
X0103634Y0156933D03*
X0116634Y0137933D03*
X0130634Y0137933D03*
X0118634Y0171933D03*
X0134634Y0238933D03*
X0139634Y0238933D03*
X0139634Y0252933D03*
X0134634Y0252933D03*
X0062634Y0174933D03*
X0054634Y0179933D03*
X0054634Y0228933D03*
X0058634Y0228933D03*
X0049201Y0260248D03*
X0049201Y0265248D03*
X0043634Y0259933D03*
X0039634Y0259933D03*
X0034634Y0259933D03*
X0029634Y0259933D03*
X0024634Y0280012D03*
X0034634Y0293933D03*
X0056634Y0306933D03*
X0059634Y0070602D03*
X0074634Y0070602D03*
X0089634Y0070602D03*
X0044634Y0070544D03*
M02*
