%
M48
M72
T01C0.01378
T02C0.03937
T03C0.04000
%
T01
X29634Y70602
X21023Y91933
X23634Y103933
X26634Y128933
X34634Y154933
X44634Y154933
X54634Y154933
X64634Y154933
X74634Y154933
X84634Y154933
X103634Y156933
X116634Y137933
X130634Y137933
X118634Y171933
X134634Y238933
X139634Y238933
X139634Y252933
X134634Y252933
X62634Y174933
X54634Y179933
X54634Y228933
X58634Y228933
X49201Y260248
X49201Y265248
X43634Y259933
X39634Y259933
X34634Y259933
X29634Y259933
X24634Y280012
X34634Y293933
X56634Y306933
X59634Y70602
X74634Y70602
X89634Y70602
X44634Y70544
T02
X119634Y199933
X129634Y199933
X153634Y191933
X153634Y181933
X153634Y163933
X153634Y153933
T03
X149634Y249933
X149634Y259933
X149634Y269933
X144634Y294933
X144634Y304933
X144634Y314933
X144634Y324933
X89634Y214933
X89634Y204933
X79634Y204933
X79634Y214933
X69634Y214933
X69634Y204933
X69634Y119933
X79634Y119933
X89634Y119933
X59634Y119933
X49634Y119933
X39634Y119933
X29634Y119933
M30
