G75*
%MOIN*%
%OFA0B0*%
%FSLAX25Y25*%
%IPPOS*%
%LPD*%
%AMOC8*
5,1,8,0,0,1.08239X$1,22.5*
%
%ADD10C,0.00800*%
%ADD11C,0.00400*%
%ADD12C,0.01000*%
D10*
X0073092Y0033400D02*
X0089508Y0033400D01*
X0089508Y0042600D01*
X0073092Y0042600D01*
X0073092Y0033400D01*
X0138092Y0033400D02*
X0154508Y0033400D01*
X0154508Y0042600D01*
X0138092Y0042600D01*
X0138092Y0033400D01*
X0198092Y0033400D02*
X0214508Y0033400D01*
X0214508Y0042600D01*
X0198092Y0042600D01*
X0198092Y0033400D01*
D11*
X0210040Y0036606D02*
X0210042Y0036678D01*
X0210048Y0036750D01*
X0210058Y0036821D01*
X0210071Y0036892D01*
X0210089Y0036962D01*
X0210110Y0037031D01*
X0210135Y0037098D01*
X0210164Y0037164D01*
X0210196Y0037229D01*
X0210232Y0037291D01*
X0210271Y0037352D01*
X0210313Y0037410D01*
X0210359Y0037466D01*
X0210407Y0037519D01*
X0210459Y0037570D01*
X0210513Y0037618D01*
X0210569Y0037662D01*
X0210628Y0037704D01*
X0210689Y0037742D01*
X0210752Y0037777D01*
X0210817Y0037809D01*
X0210884Y0037836D01*
X0210951Y0037860D01*
X0211021Y0037881D01*
X0211091Y0037897D01*
X0211162Y0037910D01*
X0211233Y0037919D01*
X0211305Y0037924D01*
X0211377Y0037925D01*
X0211449Y0037922D01*
X0211521Y0037915D01*
X0211592Y0037904D01*
X0211663Y0037890D01*
X0211732Y0037871D01*
X0211801Y0037849D01*
X0211868Y0037823D01*
X0211934Y0037793D01*
X0211998Y0037760D01*
X0212060Y0037724D01*
X0212120Y0037684D01*
X0212177Y0037640D01*
X0212233Y0037594D01*
X0212285Y0037545D01*
X0212335Y0037493D01*
X0212382Y0037438D01*
X0212426Y0037381D01*
X0212467Y0037322D01*
X0212504Y0037260D01*
X0212538Y0037197D01*
X0212569Y0037131D01*
X0212596Y0037065D01*
X0212619Y0036996D01*
X0212638Y0036927D01*
X0212654Y0036857D01*
X0212666Y0036786D01*
X0212674Y0036714D01*
X0212678Y0036642D01*
X0212678Y0036570D01*
X0212674Y0036498D01*
X0212666Y0036426D01*
X0212654Y0036355D01*
X0212638Y0036285D01*
X0212619Y0036216D01*
X0212596Y0036147D01*
X0212569Y0036081D01*
X0212538Y0036015D01*
X0212504Y0035952D01*
X0212467Y0035890D01*
X0212426Y0035831D01*
X0212382Y0035774D01*
X0212335Y0035719D01*
X0212285Y0035667D01*
X0212233Y0035618D01*
X0212177Y0035572D01*
X0212120Y0035528D01*
X0212060Y0035488D01*
X0211998Y0035452D01*
X0211934Y0035419D01*
X0211868Y0035389D01*
X0211801Y0035363D01*
X0211732Y0035341D01*
X0211663Y0035322D01*
X0211592Y0035308D01*
X0211521Y0035297D01*
X0211449Y0035290D01*
X0211377Y0035287D01*
X0211305Y0035288D01*
X0211233Y0035293D01*
X0211162Y0035302D01*
X0211091Y0035315D01*
X0211021Y0035331D01*
X0210951Y0035352D01*
X0210884Y0035376D01*
X0210817Y0035403D01*
X0210752Y0035435D01*
X0210689Y0035470D01*
X0210628Y0035508D01*
X0210569Y0035550D01*
X0210513Y0035594D01*
X0210459Y0035642D01*
X0210407Y0035693D01*
X0210359Y0035746D01*
X0210313Y0035802D01*
X0210271Y0035860D01*
X0210232Y0035921D01*
X0210196Y0035983D01*
X0210164Y0036048D01*
X0210135Y0036114D01*
X0210110Y0036181D01*
X0210089Y0036250D01*
X0210071Y0036320D01*
X0210058Y0036391D01*
X0210048Y0036462D01*
X0210042Y0036534D01*
X0210040Y0036606D01*
X0150040Y0036606D02*
X0150042Y0036678D01*
X0150048Y0036750D01*
X0150058Y0036821D01*
X0150071Y0036892D01*
X0150089Y0036962D01*
X0150110Y0037031D01*
X0150135Y0037098D01*
X0150164Y0037164D01*
X0150196Y0037229D01*
X0150232Y0037291D01*
X0150271Y0037352D01*
X0150313Y0037410D01*
X0150359Y0037466D01*
X0150407Y0037519D01*
X0150459Y0037570D01*
X0150513Y0037618D01*
X0150569Y0037662D01*
X0150628Y0037704D01*
X0150689Y0037742D01*
X0150752Y0037777D01*
X0150817Y0037809D01*
X0150884Y0037836D01*
X0150951Y0037860D01*
X0151021Y0037881D01*
X0151091Y0037897D01*
X0151162Y0037910D01*
X0151233Y0037919D01*
X0151305Y0037924D01*
X0151377Y0037925D01*
X0151449Y0037922D01*
X0151521Y0037915D01*
X0151592Y0037904D01*
X0151663Y0037890D01*
X0151732Y0037871D01*
X0151801Y0037849D01*
X0151868Y0037823D01*
X0151934Y0037793D01*
X0151998Y0037760D01*
X0152060Y0037724D01*
X0152120Y0037684D01*
X0152177Y0037640D01*
X0152233Y0037594D01*
X0152285Y0037545D01*
X0152335Y0037493D01*
X0152382Y0037438D01*
X0152426Y0037381D01*
X0152467Y0037322D01*
X0152504Y0037260D01*
X0152538Y0037197D01*
X0152569Y0037131D01*
X0152596Y0037065D01*
X0152619Y0036996D01*
X0152638Y0036927D01*
X0152654Y0036857D01*
X0152666Y0036786D01*
X0152674Y0036714D01*
X0152678Y0036642D01*
X0152678Y0036570D01*
X0152674Y0036498D01*
X0152666Y0036426D01*
X0152654Y0036355D01*
X0152638Y0036285D01*
X0152619Y0036216D01*
X0152596Y0036147D01*
X0152569Y0036081D01*
X0152538Y0036015D01*
X0152504Y0035952D01*
X0152467Y0035890D01*
X0152426Y0035831D01*
X0152382Y0035774D01*
X0152335Y0035719D01*
X0152285Y0035667D01*
X0152233Y0035618D01*
X0152177Y0035572D01*
X0152120Y0035528D01*
X0152060Y0035488D01*
X0151998Y0035452D01*
X0151934Y0035419D01*
X0151868Y0035389D01*
X0151801Y0035363D01*
X0151732Y0035341D01*
X0151663Y0035322D01*
X0151592Y0035308D01*
X0151521Y0035297D01*
X0151449Y0035290D01*
X0151377Y0035287D01*
X0151305Y0035288D01*
X0151233Y0035293D01*
X0151162Y0035302D01*
X0151091Y0035315D01*
X0151021Y0035331D01*
X0150951Y0035352D01*
X0150884Y0035376D01*
X0150817Y0035403D01*
X0150752Y0035435D01*
X0150689Y0035470D01*
X0150628Y0035508D01*
X0150569Y0035550D01*
X0150513Y0035594D01*
X0150459Y0035642D01*
X0150407Y0035693D01*
X0150359Y0035746D01*
X0150313Y0035802D01*
X0150271Y0035860D01*
X0150232Y0035921D01*
X0150196Y0035983D01*
X0150164Y0036048D01*
X0150135Y0036114D01*
X0150110Y0036181D01*
X0150089Y0036250D01*
X0150071Y0036320D01*
X0150058Y0036391D01*
X0150048Y0036462D01*
X0150042Y0036534D01*
X0150040Y0036606D01*
X0085040Y0036606D02*
X0085042Y0036678D01*
X0085048Y0036750D01*
X0085058Y0036821D01*
X0085071Y0036892D01*
X0085089Y0036962D01*
X0085110Y0037031D01*
X0085135Y0037098D01*
X0085164Y0037164D01*
X0085196Y0037229D01*
X0085232Y0037291D01*
X0085271Y0037352D01*
X0085313Y0037410D01*
X0085359Y0037466D01*
X0085407Y0037519D01*
X0085459Y0037570D01*
X0085513Y0037618D01*
X0085569Y0037662D01*
X0085628Y0037704D01*
X0085689Y0037742D01*
X0085752Y0037777D01*
X0085817Y0037809D01*
X0085884Y0037836D01*
X0085951Y0037860D01*
X0086021Y0037881D01*
X0086091Y0037897D01*
X0086162Y0037910D01*
X0086233Y0037919D01*
X0086305Y0037924D01*
X0086377Y0037925D01*
X0086449Y0037922D01*
X0086521Y0037915D01*
X0086592Y0037904D01*
X0086663Y0037890D01*
X0086732Y0037871D01*
X0086801Y0037849D01*
X0086868Y0037823D01*
X0086934Y0037793D01*
X0086998Y0037760D01*
X0087060Y0037724D01*
X0087120Y0037684D01*
X0087177Y0037640D01*
X0087233Y0037594D01*
X0087285Y0037545D01*
X0087335Y0037493D01*
X0087382Y0037438D01*
X0087426Y0037381D01*
X0087467Y0037322D01*
X0087504Y0037260D01*
X0087538Y0037197D01*
X0087569Y0037131D01*
X0087596Y0037065D01*
X0087619Y0036996D01*
X0087638Y0036927D01*
X0087654Y0036857D01*
X0087666Y0036786D01*
X0087674Y0036714D01*
X0087678Y0036642D01*
X0087678Y0036570D01*
X0087674Y0036498D01*
X0087666Y0036426D01*
X0087654Y0036355D01*
X0087638Y0036285D01*
X0087619Y0036216D01*
X0087596Y0036147D01*
X0087569Y0036081D01*
X0087538Y0036015D01*
X0087504Y0035952D01*
X0087467Y0035890D01*
X0087426Y0035831D01*
X0087382Y0035774D01*
X0087335Y0035719D01*
X0087285Y0035667D01*
X0087233Y0035618D01*
X0087177Y0035572D01*
X0087120Y0035528D01*
X0087060Y0035488D01*
X0086998Y0035452D01*
X0086934Y0035419D01*
X0086868Y0035389D01*
X0086801Y0035363D01*
X0086732Y0035341D01*
X0086663Y0035322D01*
X0086592Y0035308D01*
X0086521Y0035297D01*
X0086449Y0035290D01*
X0086377Y0035287D01*
X0086305Y0035288D01*
X0086233Y0035293D01*
X0086162Y0035302D01*
X0086091Y0035315D01*
X0086021Y0035331D01*
X0085951Y0035352D01*
X0085884Y0035376D01*
X0085817Y0035403D01*
X0085752Y0035435D01*
X0085689Y0035470D01*
X0085628Y0035508D01*
X0085569Y0035550D01*
X0085513Y0035594D01*
X0085459Y0035642D01*
X0085407Y0035693D01*
X0085359Y0035746D01*
X0085313Y0035802D01*
X0085271Y0035860D01*
X0085232Y0035921D01*
X0085196Y0035983D01*
X0085164Y0036048D01*
X0085135Y0036114D01*
X0085110Y0036181D01*
X0085089Y0036250D01*
X0085071Y0036320D01*
X0085058Y0036391D01*
X0085048Y0036462D01*
X0085042Y0036534D01*
X0085040Y0036606D01*
D12*
X0011300Y0028000D02*
X0011300Y0010500D01*
X0041300Y0010500D01*
X0041300Y0028000D01*
X0011300Y0028000D01*
X0011300Y0035500D01*
X0041300Y0035500D01*
X0041300Y0028000D01*
M02*
